<?xml version="1.0" standalone="no"?>
<!DOCTYPE svg PUBLIC "-//W3C//DTD SVG 20010904//EN"
 "http://www.w3.org/TR/2001/REC-SVG-20010904/DTD/svg10.dtd">
<svg version="1.0" xmlns="http://www.w3.org/2000/svg"
 width="528.000000pt" height="224.000000pt" viewBox="0 0 528.000000 224.000000"
 preserveAspectRatio="xMidYMid meet">

<g transform="translate(0.000000,224.000000) scale(0.100000,-0.100000)"
fill="#000000" stroke="none">
<path d="M1425 1381 c-104 -28 -196 -105 -241 -204 -25 -54 -29 -74 -29 -152
1 -78 4 -97 28 -145 39 -75 108 -143 181 -177 53 -24 73 -28 151 -28 78 1 97
4 145 28 75 39 143 108 177 181 24 53 28 73 28 151 -1 78 -4 97 -28 145 -63
123 -180 201 -312 206 -38 2 -83 -1 -100 -5z m-12 -223 c14 -12 15 -21 3 -85
-7 -40 -10 -73 -7 -73 13 0 27 16 38 42 17 39 57 62 90 53 l28 -7 -35 -11
c-31 -11 -35 -16 -35 -47 0 -24 5 -36 16 -38 13 -2 16 5 15 35 -1 32 2 38 22
41 18 3 23 -2 28 -28 8 -35 16 -30 33 19 8 26 8 37 -2 49 -10 13 -9 14 1 8 8
-5 23 4 41 23 31 33 61 40 80 17 18 -22 2 -45 -40 -57 -33 -10 -40 -17 -45
-45 -7 -40 1 -67 19 -61 7 2 11 17 9 35 -4 42 16 51 31 12 10 -25 16 -30 34
-25 17 4 21 2 17 -10 -4 -8 -11 -16 -18 -17 -25 -3 -32 -5 -58 -18 -23 -11
-31 -10 -52 4 -32 20 -47 20 -90 0 -31 -15 -36 -15 -66 0 -39 19 -54 12 -90
-40 -27 -41 -46 -50 -86 -40 -38 10 -30 41 18 68 38 21 42 28 54 83 7 33 16
69 20 79 7 17 3 19 -39 14 -52 -6 -62 5 -19 20 38 14 65 14 85 0z"/>
<path d="M1675 1129 c-12 -19 5 -23 22 -6 16 16 16 17 1 17 -9 0 -20 -5 -23
-11z"/>
<path d="M1307 939 c-9 -6 -15 -14 -12 -20 10 -16 34 -10 45 11 12 23 -2 27
-33 9z"/>
<path d="M2106 1190 c-39 -12 -66 -39 -66 -65 0 -34 10 -37 48 -13 l34 21 -7
-24 c-10 -31 -23 -47 -45 -54 -27 -9 -34 -36 -11 -42 18 -5 19 -11 14 -68 -5
-58 -4 -63 15 -69 38 -12 59 9 66 66 9 69 14 76 61 80 35 3 40 6 43 31 3 25 1
27 -32 27 -36 0 -41 5 -30 34 4 12 20 16 54 16 52 0 83 20 78 49 -3 13 -19 16
-98 18 -52 1 -108 -2 -124 -7z"/>
<path d="M3081 1186 c-6 -7 -17 -31 -25 -52 -11 -34 -18 -40 -49 -45 -46 -7
-75 -32 -99 -86 -10 -24 -21 -43 -24 -43 -2 0 -2 21 2 48 8 61 -15 87 -73 80
-21 -3 -46 0 -56 6 -23 14 -42 -9 -59 -69 -6 -22 -17 -47 -24 -54 -11 -12 -13
-4 -7 52 5 55 3 68 -10 73 -29 11 -54 -13 -60 -59 -7 -51 -26 -97 -40 -97 -6
0 -7 13 -2 33 18 85 18 105 -1 115 -37 19 -61 -2 -70 -60 -7 -51 -7 -52 -15
-22 -14 49 -52 84 -94 84 -51 0 -89 -23 -110 -66 -21 -45 -14 -102 16 -126 26
-22 98 -24 125 -3 24 18 49 19 77 1 25 -17 150 -19 180 -4 14 7 24 5 38 -8 17
-15 20 -15 44 0 21 14 24 23 23 61 -2 34 3 50 19 66 l21 22 -1 -68 c-2 -82 11
-97 69 -76 26 9 39 10 47 2 13 -13 76 -14 96 -2 9 6 21 5 31 -1 39 -25 120 27
120 77 0 31 -16 32 -48 3 l-25 -23 6 63 c3 34 12 74 21 87 37 57 -2 140 -43
91z m-51 -180 c0 -33 -21 -66 -41 -66 -18 0 -9 54 13 77 12 13 23 23 25 23 2
0 3 -15 3 -34z m-673 3 c-3 -12 -2 -32 3 -45 7 -18 6 -24 -5 -24 -20 0 -29 39
-14 66 15 30 23 31 16 3z"/>
</g>
</svg>
