<svg width="216" height="95" viewBox="0 0 216 95" fill="white" xmlns="http://www.w3.org/2000/svg">
<rect width="216" height="95" fill="#1E1E1E"/>
<rect width="216" height="95" fill="#F0F4F8"/>
<path d="M101.84 49.84C100.293 50.0533 99.0133 50.16 98 50.16C97.6533 50.16 97.48 50.0267 97.48 49.76C97.48 49.1467 97.8933 48.5067 98.72 47.84C99.5733 47.1467 100.947 46.5467 102.84 46.04C103.693 43 104.667 40.2133 105.76 37.68C103.093 37.8133 100.907 38.6933 99.2 40.32C98.7733 40.7467 98.4267 41.08 98.16 41.32C97.8933 41.56 97.6533 41.68 97.44 41.68C97.2533 41.68 97.0667 41.52 96.88 41.2C96.6933 40.88 96.6 40.4533 96.6 39.92C96.6267 37.8667 98.0133 36.2 100.76 34.92C103.507 33.64 106.893 33.0133 110.92 33.04L122.92 33.24C123.64 33.24 124 33.52 124 34.08C124 34.24 123.893 34.5333 123.68 34.96C123.467 35.36 123.28 35.8 123.12 36.28C122.773 37.24 122.027 37.72 120.88 37.72H119.6L114.28 37.68H111.2C110.987 39.2 110.347 41.68 109.28 45.12L116.6 45.24C117.027 45.24 117.24 45.4933 117.24 46C117.24 46.16 117.173 46.44 117.04 46.84C116.907 47.24 116.787 47.6533 116.68 48.08C116.467 48.96 116.013 49.4 115.32 49.4L109.24 49.12H108.72C108.56 49.12 108.373 49.1333 108.16 49.16C106.773 54.2533 106.08 58.28 106.08 61.24C106.08 62.8133 104.547 63.6 101.48 63.6C100.813 63.6 100.413 63.2667 100.28 62.6C100.173 61.9067 100.12 61 100.12 59.88C100.12 57.48 100.693 54.1333 101.84 49.84ZM134.571 59.6C132.464 62.08 129.931 63.32 126.971 63.32C124.038 63.32 121.838 62.5733 120.371 61.08C118.904 59.56 118.184 57.68 118.211 55.44C118.184 52.2667 119.184 49.5333 121.211 47.24C123.238 44.9467 125.891 43.8 129.171 43.8C130.664 43.8 131.864 43.9867 132.771 44.36C134.344 45 135.131 45.6 135.131 46.16C135.131 46.5867 134.024 46.8133 131.811 46.84C129.624 46.84 127.784 47.6 126.291 49.12C124.824 50.6133 124.091 52.5067 124.091 54.8C124.091 56 124.438 57.0133 125.131 57.84C125.851 58.64 126.851 59.04 128.131 59.04C129.438 59.04 130.518 58.7733 131.371 58.24C129.478 56.96 128.531 55.1067 128.531 52.68C128.504 51.4 128.958 50.24 129.891 49.2C130.851 48.1333 132.064 47.6 133.531 47.6C135.024 47.5733 136.091 47.9733 136.731 48.8C137.371 49.6267 137.691 50.6933 137.691 52C137.691 53.28 137.384 54.64 136.771 56.08H137.011C138.184 56.0533 139.198 55.64 140.051 54.84C140.371 54.52 140.638 54.24 140.851 54C141.091 53.76 141.331 53.64 141.571 53.64C141.944 53.64 142.131 54.08 142.131 54.96C142.131 56.5867 141.651 57.8133 140.691 58.64C139.731 59.44 138.664 59.84 137.491 59.84C136.344 59.84 135.371 59.76 134.571 59.6ZM134.211 54.96C134.664 54 134.891 53.0667 134.891 52.16C134.891 51.2533 134.598 50.8 134.011 50.8C133.771 50.8 133.571 50.9733 133.411 51.32C133.251 51.6667 133.171 52 133.171 52.32C133.171 53.3867 133.518 54.2667 134.211 54.96ZM152.57 46.12C152.57 44.3333 153.956 43.44 156.73 43.44C157.423 43.44 157.85 43.6667 158.01 44.12C158.196 44.5733 158.29 45.2667 158.29 46.2C158.29 47.5067 157.996 49.5333 157.41 52.28C156.823 55.0267 156.543 56.88 156.57 57.84C156.57 58.2933 156.716 58.52 157.01 58.52C157.41 58.52 157.903 58.2667 158.49 57.76C159.076 57.2533 159.663 56.7067 160.25 56.12C160.836 55.5067 161.37 54.9467 161.85 54.44C162.356 53.9333 162.703 53.68 162.89 53.68C163.263 53.68 163.45 54.1333 163.45 55.04C163.45 56.9067 162.53 58.7067 160.69 60.44C157.596 62.2533 155.636 63.16 154.81 63.16C154.73 63.16 154.663 63.1467 154.61 63.12C153.596 63.12 152.876 62.7867 152.45 62.12C152.05 61.4533 151.796 60.6133 151.69 59.6C151.156 60.5867 150.423 61.44 149.49 62.16C148.556 62.8533 147.49 63.2 146.29 63.2C144.183 63.2 142.556 62.8 141.41 62C140.29 61.2 139.73 60.0133 139.73 58.44C139.73 57.7467 139.823 57.1067 140.01 56.52C140.223 55.9333 140.556 55.2133 141.01 54.36L142.17 44.52C142.996 43.88 144.183 43.56 145.73 43.56C146.956 43.56 147.65 44.36 147.81 45.96C147.943 47.2667 147.876 48.44 147.61 49.48C147.37 50.4933 147.036 51.7867 146.61 53.36C146.183 54.9067 145.97 56.28 145.97 57.48C145.97 58.44 146.57 58.92 147.77 58.92C149.076 58.92 150.21 57.7733 151.17 55.48C151.916 53.72 152.423 51.76 152.69 49.6C152.663 49.3867 152.636 49.12 152.61 48.8C152.61 48.4533 152.596 48.12 152.57 47.8C152.57 47.48 152.57 47.16 152.57 46.84V46.12ZM166.778 43.04C167.738 43.04 168.644 43.96 169.498 45.8C170.751 44.4933 172.298 43.84 174.138 43.84C176.004 43.84 177.404 44.2533 178.338 45.08C179.271 45.88 179.738 47.0267 179.738 48.52C179.738 49.9867 179.538 51.48 179.138 53C178.764 54.52 178.484 55.6133 178.298 56.28C178.138 56.92 178.058 57.4533 178.058 57.88C178.058 58.3067 178.204 58.52 178.498 58.52C178.898 58.52 179.391 58.2667 179.978 57.76C180.564 57.2533 181.151 56.7067 181.738 56.12C182.324 55.5067 182.858 54.9467 183.338 54.44C183.844 53.9333 184.191 53.68 184.378 53.68C184.751 53.68 184.938 54.1333 184.938 55.04C184.938 56.9067 184.018 58.7067 182.178 60.44C179.084 62.2533 177.111 63.16 176.258 63.16C176.178 63.16 176.124 63.1467 176.098 63.12C173.964 63.12 172.898 61.4133 172.898 58C172.898 56.5333 173.031 55.1867 173.298 53.96C173.591 52.7333 173.804 51.84 173.938 51.28C174.071 50.72 174.138 50.1467 174.138 49.56C174.138 48.6 173.578 48.12 172.458 48.12C171.364 48.12 170.311 48.9467 169.298 50.6C168.311 52.2267 167.644 53.92 167.298 55.68V55.96C167.298 56.8667 167.431 57.8 167.698 58.76C167.991 59.72 168.138 60.3867 168.138 60.76C168.138 61.6667 167.004 62.56 164.738 63.44C164.391 63.5733 164.084 63.64 163.818 63.64C163.151 63.64 162.684 63.2933 162.418 62.6C162.178 61.9067 162.058 60.8267 162.058 59.36C162.058 55.5733 162.204 52.84 162.498 51.16C162.898 48.6533 163.804 46.32 165.218 44.16C165.698 43.4133 166.218 43.04 166.778 43.04ZM207.502 53.56C207.982 53.56 208.222 54.1733 208.222 55.4C208.222 56.0667 207.942 56.88 207.382 57.84C206.822 58.7733 206.089 59.64 205.182 60.44C204.302 61.2133 203.316 61.8533 202.222 62.36C201.129 62.8667 200.062 63.12 199.022 63.12C197.556 63.12 196.596 61.92 196.142 59.52C194.542 62.0533 192.169 63.32 189.022 63.32C187.102 63.32 185.569 62.7333 184.422 61.56C183.276 60.3867 182.716 58.96 182.742 57.28C182.742 52.7467 184.249 49.1733 187.262 46.56C189.342 44.7733 191.502 43.88 193.742 43.88C194.756 43.88 195.556 43.96 196.142 44.12L197.062 44.36C198.156 39.2133 199.422 35.7733 200.862 34.04C201.342 33.4533 201.822 33.16 202.302 33.16C203.076 33.16 203.796 33.6933 204.462 34.76C205.049 35.64 205.342 36.4 205.342 37.04C205.342 37.68 205.249 38.3067 205.062 38.92C204.876 39.5333 204.636 40.1067 204.342 40.64C204.076 41.1467 203.769 41.6533 203.422 42.16C203.076 42.64 202.729 43.1333 202.382 43.64C201.609 46.52 201.036 49.7467 200.662 53.32C200.556 54.3333 200.502 55.1467 200.502 55.76C200.502 57.6 200.809 58.52 201.422 58.52C202.116 58.52 203.796 57.1333 206.462 54.36C206.942 53.8267 207.289 53.56 207.502 53.56ZM188.622 55.96C188.622 58.0133 189.382 59.04 190.902 59.04C191.809 59.04 192.716 58.6933 193.622 58C194.556 57.3067 195.276 56.1467 195.782 54.52C195.836 52.12 196.116 49.48 196.622 46.6C194.489 47.0267 192.622 48.0667 191.022 49.72C189.422 51.3733 188.622 53.4533 188.622 55.96Z" fill="#002255"/>
<path d="M101.84 49.84L102.806 50.098L103.195 48.6437L101.703 48.8494L101.84 49.84ZM98.72 47.84L99.3478 48.6184L99.3506 48.6161L98.72 47.84ZM102.84 46.04L103.099 47.006L103.649 46.8587L103.803 46.3103L102.84 46.04ZM105.76 37.68L106.678 38.0763L107.315 36.601L105.71 36.6812L105.76 37.68ZM99.2 40.32L98.5101 39.5961L98.5014 39.6044L98.4929 39.6129L99.2 40.32ZM98.16 41.32L97.491 40.5767L97.491 40.5767L98.16 41.32ZM96.88 41.2L96.0162 41.7039L96.0162 41.7039L96.88 41.2ZM96.6 39.92L95.6 39.907V39.92H96.6ZM100.76 34.92L101.182 35.8264L101.182 35.8264L100.76 34.92ZM110.92 33.04L110.937 32.0401L110.927 32.04L110.92 33.04ZM122.92 33.24L122.903 34.2399L122.912 34.24H122.92V33.24ZM123.68 34.96L124.562 35.4306L124.569 35.419L124.574 35.4072L123.68 34.96ZM123.12 36.28L124.061 36.6196L124.065 36.608L124.069 36.5962L123.12 36.28ZM119.6 37.72L119.592 38.72H119.6V37.72ZM114.28 37.68L114.288 36.68H114.28V37.68ZM111.2 37.68V36.68H110.331L110.21 37.541L111.2 37.68ZM109.28 45.12L108.325 44.8238L107.93 46.098L109.264 46.1199L109.28 45.12ZM116.6 45.24L116.584 46.2399L116.592 46.24H116.6V45.24ZM117.04 46.84L117.989 47.1562L117.04 46.84ZM116.68 48.08L115.71 47.8375L115.708 47.8444L116.68 48.08ZM115.32 49.4L115.274 50.3989L115.297 50.4H115.32V49.4ZM109.24 49.12L109.286 48.1211L109.263 48.12H109.24V49.12ZM108.16 49.16L108.036 48.1677L107.371 48.2508L107.195 48.8973L108.16 49.16ZM100.28 62.6L99.2916 62.7521L99.295 62.7742L99.2994 62.7961L100.28 62.6ZM101.703 48.8494C100.181 49.0594 98.9502 49.16 98 49.16V51.16C99.0765 51.16 100.406 51.0472 101.977 50.8306L101.703 48.8494ZM98 49.16C97.9269 49.16 98.0556 49.1411 98.2197 49.2674C98.3104 49.3371 98.384 49.4312 98.4301 49.5374C98.4735 49.6376 98.48 49.7197 98.48 49.76H96.48C96.48 50.128 96.6131 50.5548 97.0003 50.8526C97.3378 51.1122 97.7265 51.16 98 51.16V49.16ZM98.48 49.76C98.48 49.6118 98.5909 49.2288 99.3478 48.6184L98.0922 47.0616C97.1958 47.7845 96.48 48.6816 96.48 49.76H98.48ZM99.3506 48.6161C100.04 48.0559 101.251 47.5004 103.099 47.006L102.581 45.074C100.642 45.593 99.1066 46.2375 98.0894 47.0639L99.3506 48.6161ZM103.803 46.3103C104.646 43.3072 105.605 40.5633 106.678 38.0763L104.842 37.2837C103.729 39.8634 102.741 42.6928 101.877 45.7697L103.803 46.3103ZM105.71 36.6812C102.838 36.8249 100.413 37.7822 98.5101 39.5961L99.8899 41.0439C101.4 39.6045 103.349 38.8018 105.81 38.6788L105.71 36.6812ZM98.4929 39.6129C98.0715 40.0343 97.7389 40.3536 97.491 40.5767L98.829 42.0633C99.1144 41.8064 99.4752 41.4591 99.9071 41.0271L98.4929 39.6129ZM97.491 40.5767C97.4036 40.6554 97.3506 40.6867 97.3328 40.6956C97.3167 40.7036 97.3566 40.68 97.44 40.68V42.68C98.0214 42.68 98.4948 42.364 98.829 42.0633L97.491 40.5767ZM97.44 40.68C97.6523 40.68 97.7812 40.7754 97.8108 40.8007C97.8337 40.8203 97.8064 40.8035 97.7438 40.6961L96.0162 41.7039C96.1402 41.9165 96.2997 42.1397 96.5092 42.3193C96.7255 42.5046 97.041 42.68 97.44 42.68V40.68ZM97.7438 40.6961C97.6771 40.5819 97.6 40.3495 97.6 39.92H95.6C95.6 40.5571 95.7095 41.1781 96.0162 41.7039L97.7438 40.6961ZM97.5999 39.933C97.6194 38.4342 98.5964 37.0315 101.182 35.8264L100.338 34.0136C97.4302 35.3685 95.634 37.2991 95.6001 39.907L97.5999 39.933ZM101.182 35.8264C103.758 34.626 106.988 34.014 110.913 34.04L110.927 32.04C106.798 32.0127 103.255 32.654 100.338 34.0136L101.182 35.8264ZM110.903 34.0399L122.903 34.2399L122.937 32.2401L110.937 32.0401L110.903 34.0399ZM122.92 34.24C123.038 34.24 123.108 34.2519 123.142 34.2605C123.173 34.2687 123.155 34.2695 123.116 34.2394C123.097 34.2242 123.076 34.2041 123.056 34.1789C123.037 34.1538 123.023 34.1287 123.013 34.1064C122.994 34.0622 123 34.0457 123 34.08H125C125 33.5694 124.823 33.0333 124.344 32.6606C123.913 32.3251 123.382 32.24 122.92 32.24V34.24ZM123 34.08C123 34.0167 123.009 33.9836 123.007 33.996C123.005 34.0041 122.998 34.0303 122.98 34.0783C122.945 34.1754 122.883 34.3179 122.786 34.5128L124.574 35.4072C124.69 35.1755 124.788 34.9579 124.86 34.7617C124.923 34.5893 125 34.3409 125 34.08H123ZM122.798 34.4894C122.555 34.9442 122.347 35.4366 122.171 35.9638L124.069 36.5962C124.213 36.1634 124.378 35.7758 124.562 35.4306L122.798 34.4894ZM122.179 35.9404C122.069 36.2461 121.921 36.4149 121.759 36.5188C121.588 36.6288 121.317 36.72 120.88 36.72V38.72C121.59 38.72 122.265 38.5712 122.841 38.2012C123.426 37.8251 123.824 37.2739 124.061 36.6196L122.179 35.9404ZM120.88 36.72H119.6V38.72H120.88V36.72ZM119.608 36.72L114.288 36.68L114.272 38.68L119.592 38.72L119.608 36.72ZM114.28 36.68H111.2V38.68H114.28V36.68ZM110.21 37.541C110.009 38.9734 109.391 41.3853 108.325 44.8238L110.235 45.4162C111.302 41.9747 111.965 39.4266 112.19 37.819L110.21 37.541ZM109.264 46.1199L116.584 46.2399L116.616 44.2401L109.296 44.1201L109.264 46.1199ZM116.6 46.24C116.61 46.24 116.573 46.2417 116.512 46.2173C116.444 46.1905 116.373 46.1424 116.315 46.0741C116.208 45.9464 116.24 45.8629 116.24 46H118.24C118.24 45.6304 118.166 45.1669 117.845 44.7859C117.496 44.3719 117.017 44.24 116.6 44.24V46.24ZM116.24 46C116.24 45.9634 116.244 45.9843 116.217 46.0984C116.193 46.2001 116.153 46.3401 116.091 46.5238L117.989 47.1562C118.118 46.7685 118.24 46.3437 118.24 46H116.24ZM116.091 46.5238C115.95 46.9491 115.822 47.387 115.71 47.8375L117.65 48.3225C117.751 47.9196 117.864 47.5309 117.989 47.1562L116.091 46.5238ZM115.708 47.8444C115.628 48.1764 115.528 48.3091 115.484 48.3524C115.464 48.3711 115.45 48.3787 115.437 48.3839C115.422 48.3897 115.387 48.4 115.32 48.4V50.4C115.899 50.4 116.444 50.2071 116.876 49.7876C117.285 49.3909 117.519 48.8636 117.652 48.3156L115.708 47.8444ZM115.366 48.4011L109.286 48.1211L109.194 50.1189L115.274 50.3989L115.366 48.4011ZM109.24 48.12H108.72V50.12H109.24V48.12ZM108.72 48.12C108.507 48.12 108.277 48.1375 108.036 48.1677L108.284 50.1523C108.469 50.1291 108.613 50.12 108.72 50.12V48.12ZM107.195 48.8973C105.8 54.0206 105.08 58.1478 105.08 61.24H107.08C107.08 58.4122 107.746 54.4861 109.125 49.4227L107.195 48.8973ZM105.08 61.24C105.08 61.4635 105.028 61.6136 104.954 61.7277C104.877 61.8468 104.736 61.9855 104.474 62.1203C103.919 62.4047 102.96 62.6 101.48 62.6V64.6C103.066 64.6 104.408 64.4019 105.386 63.8997C105.89 63.6412 106.325 63.2882 106.631 62.8173C106.94 62.3414 107.08 61.8031 107.08 61.24H105.08ZM101.48 62.6C101.314 62.6 101.295 62.5608 101.32 62.5818C101.343 62.6009 101.296 62.5824 101.261 62.4039L99.2994 62.7961C99.3971 63.2843 99.6169 63.7658 100.04 64.1182C100.465 64.4725 100.98 64.6 101.48 64.6V62.6ZM101.268 62.4479C101.173 61.8255 101.12 60.9753 101.12 59.88H99.12C99.12 61.0247 99.1741 61.9879 99.2916 62.7521L101.268 62.4479ZM101.12 59.88C101.12 57.6119 101.666 54.3657 102.806 50.098L100.874 49.582C99.7203 53.901 99.12 57.3481 99.12 59.88H101.12ZM134.571 59.6L134.767 58.6194L134.19 58.504L133.809 58.9526L134.571 59.6ZM120.371 61.08L119.651 61.7744L119.657 61.7807L120.371 61.08ZM118.211 55.44L119.211 55.4519L119.211 55.4417L119.211 55.4316L118.211 55.44ZM121.211 47.24L120.462 46.5778L121.211 47.24ZM132.771 44.36L132.39 45.2847L132.394 45.2863L132.771 44.36ZM131.811 46.84L131.811 47.8401L131.823 47.8399L131.811 46.84ZM126.291 49.12L125.578 48.4192L125.577 48.4193L126.291 49.12ZM125.131 57.84L124.365 58.4826L124.376 58.496L124.388 58.509L125.131 57.84ZM131.371 58.24L131.901 59.088L133.205 58.2729L131.931 57.4116L131.371 58.24ZM128.531 52.68H129.531V52.6696L129.531 52.6592L128.531 52.68ZM129.891 49.2L129.148 48.531L129.147 48.5321L129.891 49.2ZM133.531 47.6V48.6H133.54L133.549 48.5998L133.531 47.6ZM136.731 48.8L137.522 48.1878L136.731 48.8ZM136.771 56.08L135.851 55.6881L135.258 57.08H136.771V56.08ZM137.011 56.08V57.08H137.022L137.034 57.0797L137.011 56.08ZM140.051 54.84L140.735 55.5695L140.747 55.5585L140.758 55.5471L140.051 54.84ZM140.851 54L140.144 53.2929L140.123 53.3137L140.104 53.3356L140.851 54ZM140.691 58.64L141.331 59.4082L141.337 59.403L141.343 59.3978L140.691 58.64ZM134.211 54.96L133.504 55.6671L134.508 56.6718L135.115 55.387L134.211 54.96ZM133.411 51.32L134.319 51.7391L133.411 51.32ZM133.809 58.9526C131.871 61.234 129.606 62.32 126.971 62.32V64.32C130.256 64.32 133.058 62.926 135.333 60.2474L133.809 58.9526ZM126.971 62.32C124.196 62.32 122.298 61.615 121.084 60.3793L119.657 61.7807C121.377 63.5316 123.879 64.32 126.971 64.32V62.32ZM121.091 60.3856C119.819 59.0673 119.187 57.4464 119.211 55.4519L117.211 55.4281C117.181 57.9136 117.99 60.0527 119.651 61.7744L121.091 60.3856ZM119.211 55.4316C119.186 52.4951 120.104 50.0032 121.96 47.9022L120.462 46.5778C118.265 49.0634 117.182 52.0383 117.211 55.4484L119.211 55.4316ZM121.96 47.9022C123.782 45.8405 126.154 44.8 129.171 44.8V42.8C125.628 42.8 122.693 44.0529 120.462 46.5778L121.96 47.9022ZM129.171 44.8C130.595 44.8 131.65 44.9801 132.39 45.2847L133.152 43.4353C132.078 42.9932 130.733 42.8 129.171 42.8V44.8ZM132.394 45.2863C133.148 45.5931 133.644 45.8637 133.934 46.0851C134.263 46.3355 134.131 46.3662 134.131 46.16H136.131C136.131 45.3938 135.606 44.8445 135.147 44.4949C134.651 44.1163 133.967 43.7669 133.148 43.4337L132.394 45.2863ZM134.131 46.16C134.131 45.9799 134.194 45.8259 134.273 45.7186C134.342 45.6242 134.409 45.5851 134.415 45.5814C134.418 45.5796 134.338 45.6217 134.1 45.6703C133.643 45.764 132.89 45.8269 131.799 45.8401L131.823 47.8399C132.945 47.8264 133.852 47.7627 134.502 47.6297C134.818 47.5649 135.152 47.4688 135.432 47.3036C135.708 47.1405 136.131 46.7786 136.131 46.16H134.131ZM131.811 45.84C129.364 45.84 127.264 46.7022 125.578 48.4192L127.004 49.8208C128.304 48.4978 129.885 47.84 131.811 47.84V45.84ZM125.577 48.4193C123.909 50.1184 123.091 52.2721 123.091 54.8H125.091C125.091 52.7413 125.74 51.1083 127.004 49.8207L125.577 48.4193ZM123.091 54.8C123.091 56.2069 123.503 57.4554 124.365 58.4826L125.897 57.1974C125.372 56.5712 125.091 55.7931 125.091 54.8H123.091ZM124.388 58.509C125.333 59.5596 126.626 60.04 128.131 60.04V58.04C127.076 58.04 126.369 57.7204 125.874 57.171L124.388 58.509ZM128.131 60.04C129.57 60.04 130.848 59.7463 131.901 59.088L130.841 57.392C130.187 57.8004 129.305 58.04 128.131 58.04V60.04ZM131.931 57.4116C130.332 56.3308 129.531 54.799 129.531 52.68H127.531C127.531 55.4143 128.623 57.5892 130.811 59.0684L131.931 57.4116ZM129.531 52.6592C129.51 51.6571 129.854 50.7379 130.635 49.8679L129.147 48.5321C128.061 49.7421 127.499 51.1429 127.531 52.7008L129.531 52.6592ZM130.634 49.869C131.4 49.0182 132.341 48.6 133.531 48.6V46.6C131.788 46.6 130.302 47.2484 129.148 48.531L130.634 49.869ZM133.549 48.5998C134.87 48.5763 135.567 48.93 135.94 49.4122L137.522 48.1878C136.615 47.0167 135.179 46.5704 133.513 46.6002L133.549 48.5998ZM135.94 49.4122C136.414 50.0237 136.691 50.8585 136.691 52H138.691C138.691 50.5281 138.328 49.2296 137.522 48.1878L135.94 49.4122ZM136.691 52C136.691 53.1189 136.423 54.3451 135.851 55.6881L137.691 56.4719C138.346 54.9348 138.691 53.4411 138.691 52H136.691ZM136.771 57.08H137.011V55.08H136.771V57.08ZM137.034 57.0797C138.452 57.0475 139.701 56.5386 140.735 55.5695L139.367 54.1105C138.694 54.7414 137.916 55.0592 136.988 55.0803L137.034 57.0797ZM140.758 55.5471C141.087 55.2184 141.368 54.9236 141.598 54.6644L140.104 53.3356C139.907 53.5564 139.655 53.8216 139.344 54.1329L140.758 55.5471ZM141.558 54.7071C141.621 54.6439 141.656 54.6256 141.658 54.6244C141.658 54.6243 141.65 54.6285 141.633 54.6326C141.617 54.6369 141.595 54.64 141.571 54.64V52.64C140.972 52.64 140.493 52.9439 140.144 53.2929L141.558 54.7071ZM141.571 54.64C141.452 54.64 141.313 54.5993 141.198 54.5088C141.148 54.4692 141.115 54.4301 141.096 54.403C141.086 54.3894 141.08 54.3786 141.076 54.3715C141.074 54.3679 141.073 54.3652 141.072 54.3634C141.071 54.3615 141.07 54.3606 141.07 54.3605C141.07 54.3605 141.071 54.3614 141.071 54.3631C141.072 54.3649 141.073 54.3675 141.074 54.371C141.076 54.3781 141.08 54.3884 141.083 54.4023C141.09 54.4305 141.098 54.4699 141.106 54.5225C141.121 54.6292 141.131 54.773 141.131 54.96H143.131C143.131 54.4797 143.084 53.9871 142.912 53.5795C142.821 53.3652 142.674 53.1251 142.434 52.9362C142.179 52.7357 141.877 52.64 141.571 52.64V54.64ZM141.131 54.96C141.131 56.3842 140.718 57.2966 140.038 57.8822L141.343 59.3978C142.583 58.33 143.131 56.7891 143.131 54.96H141.131ZM140.051 57.8718C139.258 58.5325 138.414 58.84 137.491 58.84V60.84C138.914 60.84 140.204 60.3475 141.331 59.4082L140.051 57.8718ZM137.491 58.84C136.386 58.84 135.482 58.7625 134.767 58.6194L134.375 60.5806C135.259 60.7575 136.303 60.84 137.491 60.84V58.84ZM135.115 55.387C135.621 54.3162 135.891 53.2375 135.891 52.16H133.891C133.891 52.8958 133.708 53.6838 133.307 54.533L135.115 55.387ZM135.891 52.16C135.891 51.6308 135.811 51.0614 135.511 50.5967C135.161 50.0571 134.609 49.8 134.011 49.8V51.8C134.028 51.8 133.994 51.8026 133.938 51.774C133.879 51.7435 133.844 51.7028 133.831 51.6833C133.823 51.6705 133.84 51.6916 133.858 51.7758C133.876 51.8594 133.891 51.9841 133.891 52.16H135.891ZM134.011 49.8C133.178 49.8 132.72 50.4312 132.503 50.9009L134.319 51.7391C134.364 51.6419 134.38 51.6477 134.336 51.6857C134.31 51.7077 134.267 51.7384 134.205 51.7629C134.141 51.7879 134.074 51.8 134.011 51.8V49.8ZM132.503 50.9009C132.294 51.354 132.171 51.8301 132.171 52.32H134.171C134.171 52.1699 134.208 51.9794 134.319 51.7391L132.503 50.9009ZM132.171 52.32C132.171 53.6262 132.606 54.7688 133.504 55.6671L134.918 54.2529C134.43 53.7645 134.171 53.1471 134.171 52.32H132.171ZM158.01 44.12L157.067 44.4528L157.075 44.477L157.085 44.5007L158.01 44.12ZM157.41 52.28L156.432 52.0711L157.41 52.28ZM156.57 57.84H157.57V57.8261L157.569 57.8122L156.57 57.84ZM158.49 57.76L157.836 57.0032L158.49 57.76ZM160.25 56.12L160.957 56.8271L160.965 56.8193L160.972 56.8112L160.25 56.12ZM161.85 54.44L161.143 53.7329L161.133 53.7424L161.124 53.7523L161.85 54.44ZM160.69 60.44L161.195 61.3027L161.293 61.2455L161.375 61.1679L160.69 60.44ZM154.61 63.12L155.057 62.2256L154.846 62.12H154.61V63.12ZM152.45 62.12L151.592 62.6345L151.6 62.6469L151.607 62.6591L152.45 62.12ZM151.69 59.6L152.684 59.4953L152.346 56.2828L150.81 59.1245L151.69 59.6ZM149.49 62.16L150.086 62.9627L150.093 62.9573L150.1 62.9518L149.49 62.16ZM141.41 62L140.828 62.8138L140.838 62.8201L141.41 62ZM140.01 56.52L139.07 56.1783L139.063 56.1974L139.057 56.2168L140.01 56.52ZM141.01 54.36L141.893 54.8292L141.981 54.6634L142.003 54.4771L141.01 54.36ZM142.17 44.52L141.558 43.7293L141.226 43.9862L141.177 44.4029L142.17 44.52ZM147.81 45.96L146.815 46.0595L146.815 46.0615L147.81 45.96ZM147.61 49.48L146.641 49.2316L146.639 49.2406L146.637 49.2495L147.61 49.48ZM146.61 53.36L147.574 53.6259L147.575 53.6217L146.61 53.36ZM151.17 55.48L150.249 55.0894L150.247 55.0939L151.17 55.48ZM152.69 49.6L153.682 49.7225L153.697 49.5992L153.682 49.476L152.69 49.6ZM152.61 48.8H151.61V48.8416L151.613 48.883L152.61 48.8ZM152.57 47.8H151.57V47.8416L151.573 47.883L152.57 47.8ZM153.57 46.12C153.57 45.5329 153.771 45.1957 154.151 44.9507C154.607 44.657 155.418 44.44 156.73 44.44V42.44C155.268 42.44 153.999 42.6697 153.068 43.2693C152.062 43.9176 151.57 44.9205 151.57 46.12H153.57ZM156.73 44.44C156.979 44.44 157.081 44.4826 157.101 44.4931C157.106 44.4961 157.096 44.4915 157.083 44.4757C157.069 44.4599 157.065 44.4486 157.067 44.4528L158.953 43.7872C158.789 43.3229 158.472 42.9571 158.039 42.7269C157.632 42.5107 157.173 42.44 156.73 42.44V44.44ZM157.085 44.5007C157.195 44.7681 157.29 45.3008 157.29 46.2H159.29C159.29 45.2326 159.198 44.3786 158.934 43.7393L157.085 44.5007ZM157.29 46.2C157.29 47.3942 157.017 49.3334 156.432 52.0711L158.388 52.4889C158.976 49.7333 159.29 47.6191 159.29 46.2H157.29ZM156.432 52.0711C155.849 54.7997 155.54 56.7689 155.57 57.8678L157.569 57.8122C157.546 56.9911 157.797 55.2536 158.388 52.4889L156.432 52.0711ZM155.57 57.84C155.57 58.1425 155.613 58.542 155.84 58.8932C156.116 59.3195 156.559 59.52 157.01 59.52V57.52C157.066 57.52 157.165 57.5315 157.275 57.5885C157.389 57.6473 157.47 57.7306 157.519 57.8067C157.564 57.8762 157.575 57.9259 157.575 57.9267C157.575 57.9281 157.57 57.9025 157.57 57.84H155.57ZM157.01 59.52C157.791 59.52 158.522 59.0532 159.143 58.5168L157.836 57.0032C157.581 57.2234 157.377 57.3612 157.223 57.4404C157.066 57.521 157.001 57.52 157.01 57.52V59.52ZM159.143 58.5168C159.75 57.9932 160.354 57.4298 160.957 56.8271L159.543 55.4129C158.972 55.9835 158.403 56.5135 157.836 57.0032L159.143 58.5168ZM160.972 56.8112C161.56 56.197 162.094 55.6358 162.576 55.1277L161.124 53.7523C160.645 54.2575 160.113 54.8164 159.527 55.4288L160.972 56.8112ZM162.557 55.1471C162.794 54.9095 162.966 54.7603 163.08 54.6774C163.136 54.636 163.158 54.6265 163.149 54.6308C163.143 54.6335 163.12 54.6443 163.081 54.655C163.044 54.6655 162.977 54.68 162.89 54.68V52.68C162.633 52.68 162.422 52.762 162.291 52.8242C162.148 52.8918 162.016 52.9774 161.9 53.0626C161.666 53.233 161.412 53.4638 161.143 53.7329L162.557 55.1471ZM162.89 54.68C162.763 54.68 162.62 54.6353 162.505 54.5422C162.407 54.4624 162.38 54.3889 162.385 54.4007C162.389 54.4114 162.408 54.4643 162.424 54.581C162.44 54.6943 162.45 54.8453 162.45 55.04H164.45C164.45 54.548 164.403 54.0497 164.234 53.6392C164.146 53.4245 164.003 53.1809 163.764 52.9878C163.509 52.7814 163.203 52.68 162.89 52.68V54.68ZM162.45 55.04C162.45 56.544 161.717 58.0983 160.004 59.7121L161.375 61.1679C163.342 59.315 164.45 57.2693 164.45 55.04H162.45ZM160.184 59.5773C158.65 60.4768 157.418 61.1385 156.48 61.5724C156.011 61.7894 155.63 61.9422 155.333 62.0391C155.02 62.1409 154.86 62.16 154.81 62.16V64.16C155.173 64.16 155.568 64.0658 155.952 63.9409C156.351 63.8111 156.809 63.6239 157.32 63.3876C158.342 62.9148 159.636 62.2166 161.195 61.3027L160.184 59.5773ZM154.81 62.16C154.834 62.16 154.932 62.1633 155.057 62.2256L154.162 64.0144C154.394 64.1301 154.625 64.16 154.81 64.16V62.16ZM154.61 62.12C153.829 62.12 153.483 61.8798 153.292 61.5809L151.607 62.6591C152.27 63.6936 153.364 64.12 154.61 64.12V62.12ZM153.307 61.6055C153.002 61.0963 152.78 60.4068 152.684 59.4953L150.695 59.7047C150.813 60.8199 151.098 61.8104 151.592 62.6345L153.307 61.6055ZM150.81 59.1245C150.347 59.9818 149.707 60.7292 148.879 61.3682L150.1 62.9518C151.139 62.1508 151.966 61.1915 152.569 60.0755L150.81 59.1245ZM148.893 61.3573C148.138 61.9182 147.282 62.2 146.29 62.2V64.2C147.697 64.2 148.974 63.7885 150.086 62.9627L148.893 61.3573ZM146.29 62.2C144.29 62.2 142.895 61.8172 141.982 61.1799L140.838 62.8201C142.217 63.7828 144.076 64.2 146.29 64.2V62.2ZM141.991 61.1863C141.174 60.6029 140.73 59.7436 140.73 58.44H138.73C138.73 60.2831 139.405 61.7971 140.828 62.8137L141.991 61.1863ZM140.73 58.44C140.73 57.8368 140.811 57.3003 140.963 56.8232L139.057 56.2168C138.835 56.913 138.73 57.6566 138.73 58.44H140.73ZM140.949 56.8617C141.141 56.3357 141.451 55.661 141.893 54.8292L140.127 53.8908C139.662 54.7656 139.305 55.531 139.07 56.1783L140.949 56.8617ZM142.003 54.4771L143.163 44.6371L141.177 44.4029L140.017 54.2429L142.003 54.4771ZM142.782 45.3107C143.367 44.8578 144.303 44.56 145.73 44.56V42.56C144.063 42.56 142.626 42.9022 141.558 43.7293L142.782 45.3107ZM145.73 44.56C146.104 44.56 146.288 44.6699 146.414 44.8149C146.572 44.9971 146.745 45.3648 146.815 46.0595L148.805 45.8605C148.714 44.9552 148.461 44.1229 147.925 43.5051C147.358 42.8501 146.582 42.56 145.73 42.56V44.56ZM146.815 46.0615C146.939 47.2762 146.873 48.3281 146.641 49.2316L148.578 49.7284C148.88 48.5519 148.947 47.2571 148.805 45.8585L146.815 46.0615ZM146.637 49.2495C146.4 50.2483 146.07 51.5302 145.645 53.0983L147.575 53.6217C148.003 52.0431 148.339 50.7384 148.583 49.7105L146.637 49.2495ZM145.646 53.0941C145.203 54.7002 144.97 56.1658 144.97 57.48H146.97C146.97 56.3942 147.163 55.1131 147.574 53.6259L145.646 53.0941ZM144.97 57.48C144.97 58.1807 145.2 58.8646 145.795 59.3409C146.348 59.783 147.063 59.92 147.77 59.92V57.92C147.277 57.92 147.092 57.817 147.044 57.7791C147.04 57.7754 146.97 57.7393 146.97 57.48H144.97ZM147.77 59.92C149.754 59.92 151.121 58.1858 152.092 55.8661L150.247 55.0939C149.298 57.3608 148.399 57.92 147.77 57.92V59.92ZM152.09 55.8705C152.878 54.0141 153.406 51.9623 153.682 49.7225L151.697 49.4775C151.44 51.5577 150.955 53.4259 150.249 55.0895L152.09 55.8705ZM153.682 49.476C153.658 49.2811 153.632 49.0292 153.606 48.717L151.613 48.883C151.64 49.2108 151.668 49.4922 151.697 49.724L153.682 49.476ZM153.61 48.8C153.61 48.4278 153.595 48.0667 153.566 47.717L151.573 47.883C151.597 48.1733 151.61 48.4789 151.61 48.8H153.61ZM153.57 47.8C153.57 47.7994 153.57 47.7987 153.57 47.7981C153.57 47.7975 153.57 47.7969 153.57 47.7962C153.57 47.7956 153.57 47.795 153.57 47.7944C153.57 47.7937 153.57 47.7931 153.57 47.7925C153.57 47.7919 153.57 47.7912 153.57 47.7906C153.57 47.79 153.57 47.7894 153.57 47.7887C153.57 47.7881 153.57 47.7875 153.57 47.7869C153.57 47.7862 153.57 47.7856 153.57 47.785C153.57 47.7844 153.57 47.7837 153.57 47.7831C153.57 47.7825 153.57 47.7819 153.57 47.7812C153.57 47.7806 153.57 47.78 153.57 47.7794C153.57 47.7787 153.57 47.7781 153.57 47.7775C153.57 47.7769 153.57 47.7762 153.57 47.7756C153.57 47.775 153.57 47.7744 153.57 47.7737C153.57 47.7731 153.57 47.7725 153.57 47.7719C153.57 47.7712 153.57 47.7706 153.57 47.77C153.57 47.7694 153.57 47.7687 153.57 47.7681C153.57 47.7675 153.57 47.7669 153.57 47.7662C153.57 47.7656 153.57 47.765 153.57 47.7644C153.57 47.7637 153.57 47.7631 153.57 47.7625C153.57 47.7619 153.57 47.7612 153.57 47.7606C153.57 47.76 153.57 47.7594 153.57 47.7587C153.57 47.7581 153.57 47.7575 153.57 47.7569C153.57 47.7562 153.57 47.7556 153.57 47.755C153.57 47.7544 153.57 47.7537 153.57 47.7531C153.57 47.7525 153.57 47.7519 153.57 47.7512C153.57 47.7506 153.57 47.75 153.57 47.7494C153.57 47.7487 153.57 47.7481 153.57 47.7475C153.57 47.7469 153.57 47.7462 153.57 47.7456C153.57 47.745 153.57 47.7444 153.57 47.7437C153.57 47.7431 153.57 47.7425 153.57 47.7419C153.57 47.7412 153.57 47.7406 153.57 47.74C153.57 47.7394 153.57 47.7387 153.57 47.7381C153.57 47.7375 153.57 47.7369 153.57 47.7362C153.57 47.7356 153.57 47.735 153.57 47.7344C153.57 47.7337 153.57 47.7331 153.57 47.7325C153.57 47.7319 153.57 47.7312 153.57 47.7306C153.57 47.73 153.57 47.7294 153.57 47.7287C153.57 47.7281 153.57 47.7275 153.57 47.7269C153.57 47.7262 153.57 47.7256 153.57 47.725C153.57 47.7244 153.57 47.7237 153.57 47.7231C153.57 47.7225 153.57 47.7219 153.57 47.7212C153.57 47.7206 153.57 47.72 153.57 47.7194C153.57 47.7187 153.57 47.7181 153.57 47.7175C153.57 47.7169 153.57 47.7162 153.57 47.7156C153.57 47.715 153.57 47.7144 153.57 47.7137C153.57 47.7131 153.57 47.7125 153.57 47.7119C153.57 47.7112 153.57 47.7106 153.57 47.71C153.57 47.7094 153.57 47.7087 153.57 47.7081C153.57 47.7075 153.57 47.7069 153.57 47.7062C153.57 47.7056 153.57 47.705 153.57 47.7044C153.57 47.7037 153.57 47.7031 153.57 47.7025C153.57 47.7019 153.57 47.7012 153.57 47.7006C153.57 47.7 153.57 47.6994 153.57 47.6987C153.57 47.6981 153.57 47.6975 153.57 47.6969C153.57 47.6962 153.57 47.6956 153.57 47.695C153.57 47.6944 153.57 47.6937 153.57 47.6931C153.57 47.6925 153.57 47.6919 153.57 47.6912C153.57 47.6906 153.57 47.69 153.57 47.6894C153.57 47.6887 153.57 47.6881 153.57 47.6875C153.57 47.6869 153.57 47.6862 153.57 47.6856C153.57 47.685 153.57 47.6844 153.57 47.6837C153.57 47.6831 153.57 47.6825 153.57 47.6819C153.57 47.6812 153.57 47.6806 153.57 47.68C153.57 47.6794 153.57 47.6787 153.57 47.6781C153.57 47.6775 153.57 47.6769 153.57 47.6762C153.57 47.6756 153.57 47.675 153.57 47.6744C153.57 47.6737 153.57 47.6731 153.57 47.6725C153.57 47.6719 153.57 47.6712 153.57 47.6706C153.57 47.67 153.57 47.6694 153.57 47.6687C153.57 47.6681 153.57 47.6675 153.57 47.6669C153.57 47.6662 153.57 47.6656 153.57 47.665C153.57 47.6644 153.57 47.6637 153.57 47.6631C153.57 47.6625 153.57 47.6619 153.57 47.6612C153.57 47.6606 153.57 47.66 153.57 47.6594C153.57 47.6587 153.57 47.6581 153.57 47.6575C153.57 47.6569 153.57 47.6562 153.57 47.6556C153.57 47.655 153.57 47.6544 153.57 47.6537C153.57 47.6531 153.57 47.6525 153.57 47.6519C153.57 47.6512 153.57 47.6506 153.57 47.65C153.57 47.6494 153.57 47.6487 153.57 47.6481C153.57 47.6475 153.57 47.6469 153.57 47.6462C153.57 47.6456 153.57 47.645 153.57 47.6444C153.57 47.6437 153.57 47.6431 153.57 47.6425C153.57 47.6419 153.57 47.6412 153.57 47.6406C153.57 47.64 153.57 47.6394 153.57 47.6387C153.57 47.6381 153.57 47.6375 153.57 47.6369C153.57 47.6362 153.57 47.6356 153.57 47.635C153.57 47.6344 153.57 47.6337 153.57 47.6331C153.57 47.6325 153.57 47.6319 153.57 47.6312C153.57 47.6306 153.57 47.63 153.57 47.6294C153.57 47.6287 153.57 47.6281 153.57 47.6275C153.57 47.6269 153.57 47.6262 153.57 47.6256C153.57 47.625 153.57 47.6244 153.57 47.6237C153.57 47.6231 153.57 47.6225 153.57 47.6219C153.57 47.6212 153.57 47.6206 153.57 47.62C153.57 47.6194 153.57 47.6187 153.57 47.6181C153.57 47.6175 153.57 47.6169 153.57 47.6162C153.57 47.6156 153.57 47.615 153.57 47.6144C153.57 47.6137 153.57 47.6131 153.57 47.6125C153.57 47.6119 153.57 47.6112 153.57 47.6106C153.57 47.61 153.57 47.6094 153.57 47.6087C153.57 47.6081 153.57 47.6075 153.57 47.6069C153.57 47.6062 153.57 47.6056 153.57 47.605C153.57 47.6044 153.57 47.6037 153.57 47.6031C153.57 47.6025 153.57 47.6019 153.57 47.6012C153.57 47.6006 153.57 47.6 153.57 47.5994C153.57 47.5987 153.57 47.5981 153.57 47.5975C153.57 47.5969 153.57 47.5962 153.57 47.5956C153.57 47.595 153.57 47.5944 153.57 47.5938C153.57 47.5931 153.57 47.5925 153.57 47.5919C153.57 47.5912 153.57 47.5906 153.57 47.59C153.57 47.5894 153.57 47.5887 153.57 47.5881C153.57 47.5875 153.57 47.5869 153.57 47.5862C153.57 47.5856 153.57 47.585 153.57 47.5844C153.57 47.5837 153.57 47.5831 153.57 47.5825C153.57 47.5819 153.57 47.5812 153.57 47.5806C153.57 47.58 153.57 47.5794 153.57 47.5787C153.57 47.5781 153.57 47.5775 153.57 47.5769C153.57 47.5762 153.57 47.5756 153.57 47.575C153.57 47.5744 153.57 47.5737 153.57 47.5731C153.57 47.5725 153.57 47.5719 153.57 47.5712C153.57 47.5706 153.57 47.57 153.57 47.5694C153.57 47.5687 153.57 47.5681 153.57 47.5675C153.57 47.5669 153.57 47.5662 153.57 47.5656C153.57 47.565 153.57 47.5644 153.57 47.5637C153.57 47.5631 153.57 47.5625 153.57 47.5619C153.57 47.5612 153.57 47.5606 153.57 47.56C153.57 47.5594 153.57 47.5587 153.57 47.5581C153.57 47.5575 153.57 47.5569 153.57 47.5562C153.57 47.5556 153.57 47.555 153.57 47.5544C153.57 47.5537 153.57 47.5531 153.57 47.5525C153.57 47.5519 153.57 47.5512 153.57 47.5506C153.57 47.55 153.57 47.5494 153.57 47.5487C153.57 47.5481 153.57 47.5475 153.57 47.5469C153.57 47.5462 153.57 47.5456 153.57 47.545C153.57 47.5444 153.57 47.5437 153.57 47.5431C153.57 47.5425 153.57 47.5419 153.57 47.5412C153.57 47.5406 153.57 47.54 153.57 47.5394C153.57 47.5387 153.57 47.5381 153.57 47.5375C153.57 47.5369 153.57 47.5362 153.57 47.5356C153.57 47.535 153.57 47.5344 153.57 47.5337C153.57 47.5331 153.57 47.5325 153.57 47.5319C153.57 47.5312 153.57 47.5306 153.57 47.53C153.57 47.5294 153.57 47.5287 153.57 47.5281C153.57 47.5275 153.57 47.5269 153.57 47.5262C153.57 47.5256 153.57 47.525 153.57 47.5244C153.57 47.5237 153.57 47.5231 153.57 47.5225C153.57 47.5219 153.57 47.5212 153.57 47.5206C153.57 47.52 153.57 47.5194 153.57 47.5187C153.57 47.5181 153.57 47.5175 153.57 47.5169C153.57 47.5162 153.57 47.5156 153.57 47.515C153.57 47.5144 153.57 47.5138 153.57 47.5131C153.57 47.5125 153.57 47.5119 153.57 47.5112C153.57 47.5106 153.57 47.51 153.57 47.5094C153.57 47.5087 153.57 47.5081 153.57 47.5075C153.57 47.5069 153.57 47.5062 153.57 47.5056C153.57 47.505 153.57 47.5044 153.57 47.5037C153.57 47.5031 153.57 47.5025 153.57 47.5019C153.57 47.5012 153.57 47.5006 153.57 47.5C153.57 47.4994 153.57 47.4987 153.57 47.4981C153.57 47.4975 153.57 47.4969 153.57 47.4962C153.57 47.4956 153.57 47.495 153.57 47.4944C153.57 47.4937 153.57 47.4931 153.57 47.4925C153.57 47.4919 153.57 47.4912 153.57 47.4906C153.57 47.49 153.57 47.4894 153.57 47.4887C153.57 47.4881 153.57 47.4875 153.57 47.4869C153.57 47.4862 153.57 47.4856 153.57 47.485C153.57 47.4844 153.57 47.4837 153.57 47.4831C153.57 47.4825 153.57 47.4819 153.57 47.4812C153.57 47.4806 153.57 47.48 153.57 47.4794C153.57 47.4787 153.57 47.4781 153.57 47.4775C153.57 47.4769 153.57 47.4762 153.57 47.4756C153.57 47.475 153.57 47.4744 153.57 47.4737C153.57 47.4731 153.57 47.4725 153.57 47.4719C153.57 47.4712 153.57 47.4706 153.57 47.47C153.57 47.4694 153.57 47.4688 153.57 47.4681C153.57 47.4675 153.57 47.4669 153.57 47.4662C153.57 47.4656 153.57 47.465 153.57 47.4644C153.57 47.4637 153.57 47.4631 153.57 47.4625C153.57 47.4619 153.57 47.4612 153.57 47.4606C153.57 47.46 153.57 47.4594 153.57 47.4587C153.57 47.4581 153.57 47.4575 153.57 47.4569C153.57 47.4562 153.57 47.4556 153.57 47.455C153.57 47.4544 153.57 47.4537 153.57 47.4531C153.57 47.4525 153.57 47.4519 153.57 47.4513C153.57 47.4506 153.57 47.45 153.57 47.4494C153.57 47.4487 153.57 47.4481 153.57 47.4475C153.57 47.4469 153.57 47.4462 153.57 47.4456C153.57 47.445 153.57 47.4444 153.57 47.4437C153.57 47.4431 153.57 47.4425 153.57 47.4419C153.57 47.4412 153.57 47.4406 153.57 47.44C153.57 47.4394 153.57 47.4387 153.57 47.4381C153.57 47.4375 153.57 47.4369 153.57 47.4362C153.57 47.4356 153.57 47.435 153.57 47.4344C153.57 47.4337 153.57 47.4331 153.57 47.4325C153.57 47.4319 153.57 47.4312 153.57 47.4306C153.57 47.43 153.57 47.4294 153.57 47.4287C153.57 47.4281 153.57 47.4275 153.57 47.4269C153.57 47.4262 153.57 47.4256 153.57 47.425C153.57 47.4244 153.57 47.4237 153.57 47.4231C153.57 47.4225 153.57 47.4219 153.57 47.4212C153.57 47.4206 153.57 47.42 153.57 47.4194C153.57 47.4187 153.57 47.4181 153.57 47.4175C153.57 47.4169 153.57 47.4162 153.57 47.4156C153.57 47.415 153.57 47.4144 153.57 47.4137C153.57 47.4131 153.57 47.4125 153.57 47.4119C153.57 47.4112 153.57 47.4106 153.57 47.41C153.57 47.4094 153.57 47.4087 153.57 47.4081C153.57 47.4075 153.57 47.4069 153.57 47.4062C153.57 47.4056 153.57 47.405 153.57 47.4044C153.57 47.4037 153.57 47.4031 153.57 47.4025C153.57 47.4019 153.57 47.4012 153.57 47.4006C153.57 47.4 153.57 47.3994 153.57 47.3987C153.57 47.3981 153.57 47.3975 153.57 47.3969C153.57 47.3962 153.57 47.3956 153.57 47.395C153.57 47.3944 153.57 47.3937 153.57 47.3931C153.57 47.3925 153.57 47.3919 153.57 47.3912C153.57 47.3906 153.57 47.39 153.57 47.3894C153.57 47.3888 153.57 47.3881 153.57 47.3875C153.57 47.3869 153.57 47.3862 153.57 47.3856C153.57 47.385 153.57 47.3844 153.57 47.3837C153.57 47.3831 153.57 47.3825 153.57 47.3819C153.57 47.3812 153.57 47.3806 153.57 47.38C153.57 47.3794 153.57 47.3787 153.57 47.3781C153.57 47.3775 153.57 47.3769 153.57 47.3762C153.57 47.3756 153.57 47.375 153.57 47.3744C153.57 47.3737 153.57 47.3731 153.57 47.3725C153.57 47.3719 153.57 47.3712 153.57 47.3706C153.57 47.37 153.57 47.3694 153.57 47.3687C153.57 47.3681 153.57 47.3675 153.57 47.3669C153.57 47.3662 153.57 47.3656 153.57 47.365C153.57 47.3644 153.57 47.3637 153.57 47.3631C153.57 47.3625 153.57 47.3619 153.57 47.3612C153.57 47.3606 153.57 47.36 153.57 47.3594C153.57 47.3587 153.57 47.3581 153.57 47.3575C153.57 47.3569 153.57 47.3562 153.57 47.3556C153.57 47.355 153.57 47.3544 153.57 47.3537C153.57 47.3531 153.57 47.3525 153.57 47.3519C153.57 47.3512 153.57 47.3506 153.57 47.35C153.57 47.3494 153.57 47.3487 153.57 47.3481C153.57 47.3475 153.57 47.3469 153.57 47.3462C153.57 47.3456 153.57 47.345 153.57 47.3444C153.57 47.3438 153.57 47.3431 153.57 47.3425C153.57 47.3419 153.57 47.3412 153.57 47.3406C153.57 47.34 153.57 47.3394 153.57 47.3387C153.57 47.3381 153.57 47.3375 153.57 47.3369C153.57 47.3362 153.57 47.3356 153.57 47.335C153.57 47.3344 153.57 47.3337 153.57 47.3331C153.57 47.3325 153.57 47.3319 153.57 47.3312C153.57 47.3306 153.57 47.33 153.57 47.3294C153.57 47.3287 153.57 47.3281 153.57 47.3275C153.57 47.3269 153.57 47.3263 153.57 47.3256C153.57 47.325 153.57 47.3244 153.57 47.3237C153.57 47.3231 153.57 47.3225 153.57 47.3219C153.57 47.3212 153.57 47.3206 153.57 47.32C153.57 47.3194 153.57 47.3187 153.57 47.3181C153.57 47.3175 153.57 47.3169 153.57 47.3162C153.57 47.3156 153.57 47.315 153.57 47.3144C153.57 47.3137 153.57 47.3131 153.57 47.3125C153.57 47.3119 153.57 47.3112 153.57 47.3106C153.57 47.31 153.57 47.3094 153.57 47.3088C153.57 47.3081 153.57 47.3075 153.57 47.3069C153.57 47.3062 153.57 47.3056 153.57 47.305C153.57 47.3044 153.57 47.3037 153.57 47.3031C153.57 47.3025 153.57 47.3019 153.57 47.3012C153.57 47.3006 153.57 47.3 153.57 47.2994C153.57 47.2987 153.57 47.2981 153.57 47.2975C153.57 47.2969 153.57 47.2962 153.57 47.2956C153.57 47.295 153.57 47.2944 153.57 47.2937C153.57 47.2931 153.57 47.2925 153.57 47.2919C153.57 47.2912 153.57 47.2906 153.57 47.29C153.57 47.2894 153.57 47.2887 153.57 47.2881C153.57 47.2875 153.57 47.2869 153.57 47.2862C153.57 47.2856 153.57 47.285 153.57 47.2844C153.57 47.2837 153.57 47.2831 153.57 47.2825C153.57 47.2819 153.57 47.2812 153.57 47.2806C153.57 47.28 153.57 47.2794 153.57 47.2787C153.57 47.2781 153.57 47.2775 153.57 47.2769C153.57 47.2762 153.57 47.2756 153.57 47.275C153.57 47.2744 153.57 47.2737 153.57 47.2731C153.57 47.2725 153.57 47.2719 153.57 47.2712C153.57 47.2706 153.57 47.27 153.57 47.2694C153.57 47.2687 153.57 47.2681 153.57 47.2675C153.57 47.2669 153.57 47.2662 153.57 47.2656C153.57 47.265 153.57 47.2644 153.57 47.2638C153.57 47.2631 153.57 47.2625 153.57 47.2619C153.57 47.2612 153.57 47.2606 153.57 47.26C153.57 47.2594 153.57 47.2587 153.57 47.2581C153.57 47.2575 153.57 47.2569 153.57 47.2562C153.57 47.2556 153.57 47.255 153.57 47.2544C153.57 47.2537 153.57 47.2531 153.57 47.2525C153.57 47.2519 153.57 47.2512 153.57 47.2506C153.57 47.25 153.57 47.2494 153.57 47.2487C153.57 47.2481 153.57 47.2475 153.57 47.2469C153.57 47.2463 153.57 47.2456 153.57 47.245C153.57 47.2444 153.57 47.2437 153.57 47.2431C153.57 47.2425 153.57 47.2419 153.57 47.2412C153.57 47.2406 153.57 47.24 153.57 47.2394C153.57 47.2387 153.57 47.2381 153.57 47.2375C153.57 47.2369 153.57 47.2362 153.57 47.2356C153.57 47.235 153.57 47.2344 153.57 47.2337C153.57 47.2331 153.57 47.2325 153.57 47.2319C153.57 47.2312 153.57 47.2306 153.57 47.23C153.57 47.2294 153.57 47.2287 153.57 47.2281C153.57 47.2275 153.57 47.2269 153.57 47.2262C153.57 47.2256 153.57 47.225 153.57 47.2244C153.57 47.2237 153.57 47.2231 153.57 47.2225C153.57 47.2219 153.57 47.2212 153.57 47.2206C153.57 47.22 153.57 47.2194 153.57 47.2188C153.57 47.2181 153.57 47.2175 153.57 47.2169C153.57 47.2162 153.57 47.2156 153.57 47.215C153.57 47.2144 153.57 47.2137 153.57 47.2131C153.57 47.2125 153.57 47.2119 153.57 47.2112C153.57 47.2106 153.57 47.21 153.57 47.2094C153.57 47.2087 153.57 47.2081 153.57 47.2075C153.57 47.2069 153.57 47.2062 153.57 47.2056C153.57 47.205 153.57 47.2044 153.57 47.2037C153.57 47.2031 153.57 47.2025 153.57 47.2019C153.57 47.2013 153.57 47.2006 153.57 47.2C153.57 47.1994 153.57 47.1987 153.57 47.1981C153.57 47.1975 153.57 47.1969 153.57 47.1962C153.57 47.1956 153.57 47.195 153.57 47.1944C153.57 47.1937 153.57 47.1931 153.57 47.1925C153.57 47.1919 153.57 47.1912 153.57 47.1906C153.57 47.19 153.57 47.1894 153.57 47.1887C153.57 47.1881 153.57 47.1875 153.57 47.1869C153.57 47.1862 153.57 47.1856 153.57 47.185C153.57 47.1844 153.57 47.1838 153.57 47.1831C153.57 47.1825 153.57 47.1819 153.57 47.1812C153.57 47.1806 153.57 47.18 153.57 47.1794C153.57 47.1787 153.57 47.1781 153.57 47.1775C153.57 47.1769 153.57 47.1762 153.57 47.1756C153.57 47.175 153.57 47.1744 153.57 47.1737C153.57 47.1731 153.57 47.1725 153.57 47.1719C153.57 47.1712 153.57 47.1706 153.57 47.17C153.57 47.1694 153.57 47.1687 153.57 47.1681C153.57 47.1675 153.57 47.1669 153.57 47.1663C153.57 47.1656 153.57 47.165 153.57 47.1644C153.57 47.1637 153.57 47.1631 153.57 47.1625C153.57 47.1619 153.57 47.1612 153.57 47.1606C153.57 47.16 153.57 47.1594 153.57 47.1587C153.57 47.1581 153.57 47.1575 153.57 47.1569C153.57 47.1562 153.57 47.1556 153.57 47.155C153.57 47.1544 153.57 47.1537 153.57 47.1531C153.57 47.1525 153.57 47.1519 153.57 47.1512C153.57 47.1506 153.57 47.15 153.57 47.1494C153.57 47.1487 153.57 47.1481 153.57 47.1475C153.57 47.1469 153.57 47.1462 153.57 47.1456C153.57 47.145 153.57 47.1444 153.57 47.1437C153.57 47.1431 153.57 47.1425 153.57 47.1419C153.57 47.1412 153.57 47.1406 153.57 47.14C153.57 47.1394 153.57 47.1388 153.57 47.1381C153.57 47.1375 153.57 47.1369 153.57 47.1362C153.57 47.1356 153.57 47.135 153.57 47.1344C153.57 47.1337 153.57 47.1331 153.57 47.1325C153.57 47.1319 153.57 47.1312 153.57 47.1306C153.57 47.13 153.57 47.1294 153.57 47.1287C153.57 47.1281 153.57 47.1275 153.57 47.1269C153.57 47.1262 153.57 47.1256 153.57 47.125C153.57 47.1244 153.57 47.1237 153.57 47.1231C153.57 47.1225 153.57 47.1219 153.57 47.1213C153.57 47.1206 153.57 47.12 153.57 47.1194C153.57 47.1187 153.57 47.1181 153.57 47.1175C153.57 47.1169 153.57 47.1162 153.57 47.1156C153.57 47.115 153.57 47.1144 153.57 47.1137C153.57 47.1131 153.57 47.1125 153.57 47.1119C153.57 47.1112 153.57 47.1106 153.57 47.11C153.57 47.1094 153.57 47.1087 153.57 47.1081C153.57 47.1075 153.57 47.1069 153.57 47.1062C153.57 47.1056 153.57 47.105 153.57 47.1044C153.57 47.1038 153.57 47.1031 153.57 47.1025C153.57 47.1019 153.57 47.1012 153.57 47.1006C153.57 47.1 153.57 47.0994 153.57 47.0987C153.57 47.0981 153.57 47.0975 153.57 47.0969C153.57 47.0962 153.57 47.0956 153.57 47.095C153.57 47.0944 153.57 47.0938 153.57 47.0931C153.57 47.0925 153.57 47.0919 153.57 47.0912C153.57 47.0906 153.57 47.09 153.57 47.0894C153.57 47.0887 153.57 47.0881 153.57 47.0875C153.57 47.0869 153.57 47.0862 153.57 47.0856C153.57 47.085 153.57 47.0844 153.57 47.0837C153.57 47.0831 153.57 47.0825 153.57 47.0819C153.57 47.0812 153.57 47.0806 153.57 47.08C153.57 47.0794 153.57 47.0787 153.57 47.0781C153.57 47.0775 153.57 47.0769 153.57 47.0763C153.57 47.0756 153.57 47.075 153.57 47.0744C153.57 47.0737 153.57 47.0731 153.57 47.0725C153.57 47.0719 153.57 47.0712 153.57 47.0706C153.57 47.07 153.57 47.0694 153.57 47.0687C153.57 47.0681 153.57 47.0675 153.57 47.0669C153.57 47.0662 153.57 47.0656 153.57 47.065C153.57 47.0644 153.57 47.0637 153.57 47.0631C153.57 47.0625 153.57 47.0619 153.57 47.0612C153.57 47.0606 153.57 47.06 153.57 47.0594C153.57 47.0588 153.57 47.0581 153.57 47.0575C153.57 47.0569 153.57 47.0562 153.57 47.0556C153.57 47.055 153.57 47.0544 153.57 47.0537C153.57 47.0531 153.57 47.0525 153.57 47.0519C153.57 47.0512 153.57 47.0506 153.57 47.05C153.57 47.0494 153.57 47.0487 153.57 47.0481C153.57 47.0475 153.57 47.0469 153.57 47.0462C153.57 47.0456 153.57 47.045 153.57 47.0444C153.57 47.0437 153.57 47.0431 153.57 47.0425C153.57 47.0419 153.57 47.0413 153.57 47.0406C153.57 47.04 153.57 47.0394 153.57 47.0387C153.57 47.0381 153.57 47.0375 153.57 47.0369C153.57 47.0362 153.57 47.0356 153.57 47.035C153.57 47.0344 153.57 47.0337 153.57 47.0331C153.57 47.0325 153.57 47.0319 153.57 47.0312C153.57 47.0306 153.57 47.03 153.57 47.0294C153.57 47.0287 153.57 47.0281 153.57 47.0275C153.57 47.0269 153.57 47.0262 153.57 47.0256C153.57 47.025 153.57 47.0244 153.57 47.0238C153.57 47.0231 153.57 47.0225 153.57 47.0219C153.57 47.0212 153.57 47.0206 153.57 47.02C153.57 47.0194 153.57 47.0187 153.57 47.0181C153.57 47.0175 153.57 47.0169 153.57 47.0162C153.57 47.0156 153.57 47.015 153.57 47.0144C153.57 47.0138 153.57 47.0131 153.57 47.0125C153.57 47.0119 153.57 47.0112 153.57 47.0106C153.57 47.01 153.57 47.0094 153.57 47.0087C153.57 47.0081 153.57 47.0075 153.57 47.0069C153.57 47.0062 153.57 47.0056 153.57 47.005C153.57 47.0044 153.57 47.0037 153.57 47.0031C153.57 47.0025 153.57 47.0019 153.57 47.0012C153.57 47.0006 153.57 47 153.57 46.9994C153.57 46.9987 153.57 46.9981 153.57 46.9975C153.57 46.9969 153.57 46.9963 153.57 46.9956C153.57 46.995 153.57 46.9944 153.57 46.9937C153.57 46.9931 153.57 46.9925 153.57 46.9919C153.57 46.9912 153.57 46.9906 153.57 46.99C153.57 46.9894 153.57 46.9887 153.57 46.9881C153.57 46.9875 153.57 46.9869 153.57 46.9862C153.57 46.9856 153.57 46.985 153.57 46.9844C153.57 46.9837 153.57 46.9831 153.57 46.9825C153.57 46.9819 153.57 46.9812 153.57 46.9806C153.57 46.98 153.57 46.9794 153.57 46.9788C153.57 46.9781 153.57 46.9775 153.57 46.9769C153.57 46.9762 153.57 46.9756 153.57 46.975C153.57 46.9744 153.57 46.9737 153.57 46.9731C153.57 46.9725 153.57 46.9719 153.57 46.9712C153.57 46.9706 153.57 46.97 153.57 46.9694C153.57 46.9688 153.57 46.9681 153.57 46.9675C153.57 46.9669 153.57 46.9662 153.57 46.9656C153.57 46.965 153.57 46.9644 153.57 46.9637C153.57 46.9631 153.57 46.9625 153.57 46.9619C153.57 46.9613 153.57 46.9606 153.57 46.96C153.57 46.9594 153.57 46.9587 153.57 46.9581C153.57 46.9575 153.57 46.9569 153.57 46.9562C153.57 46.9556 153.57 46.955 153.57 46.9544C153.57 46.9537 153.57 46.9531 153.57 46.9525C153.57 46.9519 153.57 46.9513 153.57 46.9506C153.57 46.95 153.57 46.9494 153.57 46.9487C153.57 46.9481 153.57 46.9475 153.57 46.9469C153.57 46.9462 153.57 46.9456 153.57 46.945C153.57 46.9444 153.57 46.9437 153.57 46.9431C153.57 46.9425 153.57 46.9419 153.57 46.9412C153.57 46.9406 153.57 46.94 153.57 46.9394C153.57 46.9387 153.57 46.9381 153.57 46.9375C153.57 46.9369 153.57 46.9362 153.57 46.9356C153.57 46.935 153.57 46.9344 153.57 46.9338C153.57 46.9331 153.57 46.9325 153.57 46.9319C153.57 46.9312 153.57 46.9306 153.57 46.93C153.57 46.9294 153.57 46.9287 153.57 46.9281C153.57 46.9275 153.57 46.9269 153.57 46.9262C153.57 46.9256 153.57 46.925 153.57 46.9244C153.57 46.9237 153.57 46.9231 153.57 46.9225C153.57 46.9219 153.57 46.9212 153.57 46.9206C153.57 46.92 153.57 46.9194 153.57 46.9187C153.57 46.9181 153.57 46.9175 153.57 46.9169C153.57 46.9163 153.57 46.9156 153.57 46.915C153.57 46.9144 153.57 46.9137 153.57 46.9131C153.57 46.9125 153.57 46.9119 153.57 46.9112C153.57 46.9106 153.57 46.91 153.57 46.9094C153.57 46.9087 153.57 46.9081 153.57 46.9075C153.57 46.9069 153.57 46.9062 153.57 46.9056C153.57 46.905 153.57 46.9044 153.57 46.9037C153.57 46.9031 153.57 46.9025 153.57 46.9019C153.57 46.9012 153.57 46.9006 153.57 46.9C153.57 46.8994 153.57 46.8988 153.57 46.8981C153.57 46.8975 153.57 46.8969 153.57 46.8962C153.57 46.8956 153.57 46.895 153.57 46.8944C153.57 46.8937 153.57 46.8931 153.57 46.8925C153.57 46.8919 153.57 46.8912 153.57 46.8906C153.57 46.89 153.57 46.8894 153.57 46.8888C153.57 46.8881 153.57 46.8875 153.57 46.8869C153.57 46.8862 153.57 46.8856 153.57 46.885C153.57 46.8844 153.57 46.8837 153.57 46.8831C153.57 46.8825 153.57 46.8819 153.57 46.8812C153.57 46.8806 153.57 46.88 153.57 46.8794C153.57 46.8787 153.57 46.8781 153.57 46.8775C153.57 46.8769 153.57 46.8762 153.57 46.8756C153.57 46.875 153.57 46.8744 153.57 46.8737C153.57 46.8731 153.57 46.8725 153.57 46.8719C153.57 46.8713 153.57 46.8706 153.57 46.87C153.57 46.8694 153.57 46.8687 153.57 46.8681C153.57 46.8675 153.57 46.8669 153.57 46.8662C153.57 46.8656 153.57 46.865 153.57 46.8644C153.57 46.8637 153.57 46.8631 153.57 46.8625C153.57 46.8619 153.57 46.8612 153.57 46.8606C153.57 46.86 153.57 46.8594 153.57 46.8587C153.57 46.8581 153.57 46.8575 153.57 46.8569C153.57 46.8562 153.57 46.8556 153.57 46.855C153.57 46.8544 153.57 46.8538 153.57 46.8531C153.57 46.8525 153.57 46.8519 153.57 46.8512C153.57 46.8506 153.57 46.85 153.57 46.8494C153.57 46.8487 153.57 46.8481 153.57 46.8475C153.57 46.8469 153.57 46.8462 153.57 46.8456C153.57 46.845 153.57 46.8444 153.57 46.8438C153.57 46.8431 153.57 46.8425 153.57 46.8419C153.57 46.8412 153.57 46.8406 153.57 46.84H151.57C151.57 46.8406 151.57 46.8412 151.57 46.8419C151.57 46.8425 151.57 46.8431 151.57 46.8438C151.57 46.8444 151.57 46.845 151.57 46.8456C151.57 46.8462 151.57 46.8469 151.57 46.8475C151.57 46.8481 151.57 46.8487 151.57 46.8494C151.57 46.85 151.57 46.8506 151.57 46.8512C151.57 46.8519 151.57 46.8525 151.57 46.8531C151.57 46.8538 151.57 46.8544 151.57 46.855C151.57 46.8556 151.57 46.8562 151.57 46.8569C151.57 46.8575 151.57 46.8581 151.57 46.8587C151.57 46.8594 151.57 46.86 151.57 46.8606C151.57 46.8612 151.57 46.8619 151.57 46.8625C151.57 46.8631 151.57 46.8637 151.57 46.8644C151.57 46.865 151.57 46.8656 151.57 46.8662C151.57 46.8669 151.57 46.8675 151.57 46.8681C151.57 46.8687 151.57 46.8694 151.57 46.87C151.57 46.8706 151.57 46.8713 151.57 46.8719C151.57 46.8725 151.57 46.8731 151.57 46.8737C151.57 46.8744 151.57 46.875 151.57 46.8756C151.57 46.8762 151.57 46.8769 151.57 46.8775C151.57 46.8781 151.57 46.8787 151.57 46.8794C151.57 46.88 151.57 46.8806 151.57 46.8812C151.57 46.8819 151.57 46.8825 151.57 46.8831C151.57 46.8837 151.57 46.8844 151.57 46.885C151.57 46.8856 151.57 46.8862 151.57 46.8869C151.57 46.8875 151.57 46.8881 151.57 46.8888C151.57 46.8894 151.57 46.89 151.57 46.8906C151.57 46.8912 151.57 46.8919 151.57 46.8925C151.57 46.8931 151.57 46.8937 151.57 46.8944C151.57 46.895 151.57 46.8956 151.57 46.8962C151.57 46.8969 151.57 46.8975 151.57 46.8981C151.57 46.8988 151.57 46.8994 151.57 46.9C151.57 46.9006 151.57 46.9012 151.57 46.9019C151.57 46.9025 151.57 46.9031 151.57 46.9037C151.57 46.9044 151.57 46.905 151.57 46.9056C151.57 46.9062 151.57 46.9069 151.57 46.9075C151.57 46.9081 151.57 46.9087 151.57 46.9094C151.57 46.91 151.57 46.9106 151.57 46.9112C151.57 46.9119 151.57 46.9125 151.57 46.9131C151.57 46.9137 151.57 46.9144 151.57 46.915C151.57 46.9156 151.57 46.9163 151.57 46.9169C151.57 46.9175 151.57 46.9181 151.57 46.9187C151.57 46.9194 151.57 46.92 151.57 46.9206C151.57 46.9212 151.57 46.9219 151.57 46.9225C151.57 46.9231 151.57 46.9237 151.57 46.9244C151.57 46.925 151.57 46.9256 151.57 46.9262C151.57 46.9269 151.57 46.9275 151.57 46.9281C151.57 46.9287 151.57 46.9294 151.57 46.93C151.57 46.9306 151.57 46.9312 151.57 46.9319C151.57 46.9325 151.57 46.9331 151.57 46.9338C151.57 46.9344 151.57 46.935 151.57 46.9356C151.57 46.9362 151.57 46.9369 151.57 46.9375C151.57 46.9381 151.57 46.9387 151.57 46.9394C151.57 46.94 151.57 46.9406 151.57 46.9412C151.57 46.9419 151.57 46.9425 151.57 46.9431C151.57 46.9437 151.57 46.9444 151.57 46.945C151.57 46.9456 151.57 46.9462 151.57 46.9469C151.57 46.9475 151.57 46.9481 151.57 46.9487C151.57 46.9494 151.57 46.95 151.57 46.9506C151.57 46.9513 151.57 46.9519 151.57 46.9525C151.57 46.9531 151.57 46.9537 151.57 46.9544C151.57 46.955 151.57 46.9556 151.57 46.9562C151.57 46.9569 151.57 46.9575 151.57 46.9581C151.57 46.9587 151.57 46.9594 151.57 46.96C151.57 46.9606 151.57 46.9613 151.57 46.9619C151.57 46.9625 151.57 46.9631 151.57 46.9637C151.57 46.9644 151.57 46.965 151.57 46.9656C151.57 46.9662 151.57 46.9669 151.57 46.9675C151.57 46.9681 151.57 46.9688 151.57 46.9694C151.57 46.97 151.57 46.9706 151.57 46.9712C151.57 46.9719 151.57 46.9725 151.57 46.9731C151.57 46.9737 151.57 46.9744 151.57 46.975C151.57 46.9756 151.57 46.9762 151.57 46.9769C151.57 46.9775 151.57 46.9781 151.57 46.9788C151.57 46.9794 151.57 46.98 151.57 46.9806C151.57 46.9812 151.57 46.9819 151.57 46.9825C151.57 46.9831 151.57 46.9837 151.57 46.9844C151.57 46.985 151.57 46.9856 151.57 46.9862C151.57 46.9869 151.57 46.9875 151.57 46.9881C151.57 46.9887 151.57 46.9894 151.57 46.99C151.57 46.9906 151.57 46.9912 151.57 46.9919C151.57 46.9925 151.57 46.9931 151.57 46.9937C151.57 46.9944 151.57 46.995 151.57 46.9956C151.57 46.9963 151.57 46.9969 151.57 46.9975C151.57 46.9981 151.57 46.9987 151.57 46.9994C151.57 47 151.57 47.0006 151.57 47.0012C151.57 47.0019 151.57 47.0025 151.57 47.0031C151.57 47.0037 151.57 47.0044 151.57 47.005C151.57 47.0056 151.57 47.0062 151.57 47.0069C151.57 47.0075 151.57 47.0081 151.57 47.0087C151.57 47.0094 151.57 47.01 151.57 47.0106C151.57 47.0112 151.57 47.0119 151.57 47.0125C151.57 47.0131 151.57 47.0138 151.57 47.0144C151.57 47.015 151.57 47.0156 151.57 47.0162C151.57 47.0169 151.57 47.0175 151.57 47.0181C151.57 47.0187 151.57 47.0194 151.57 47.02C151.57 47.0206 151.57 47.0212 151.57 47.0219C151.57 47.0225 151.57 47.0231 151.57 47.0238C151.57 47.0244 151.57 47.025 151.57 47.0256C151.57 47.0262 151.57 47.0269 151.57 47.0275C151.57 47.0281 151.57 47.0287 151.57 47.0294C151.57 47.03 151.57 47.0306 151.57 47.0312C151.57 47.0319 151.57 47.0325 151.57 47.0331C151.57 47.0337 151.57 47.0344 151.57 47.035C151.57 47.0356 151.57 47.0362 151.57 47.0369C151.57 47.0375 151.57 47.0381 151.57 47.0387C151.57 47.0394 151.57 47.04 151.57 47.0406C151.57 47.0413 151.57 47.0419 151.57 47.0425C151.57 47.0431 151.57 47.0437 151.57 47.0444C151.57 47.045 151.57 47.0456 151.57 47.0462C151.57 47.0469 151.57 47.0475 151.57 47.0481C151.57 47.0487 151.57 47.0494 151.57 47.05C151.57 47.0506 151.57 47.0512 151.57 47.0519C151.57 47.0525 151.57 47.0531 151.57 47.0537C151.57 47.0544 151.57 47.055 151.57 47.0556C151.57 47.0562 151.57 47.0569 151.57 47.0575C151.57 47.0581 151.57 47.0588 151.57 47.0594C151.57 47.06 151.57 47.0606 151.57 47.0612C151.57 47.0619 151.57 47.0625 151.57 47.0631C151.57 47.0637 151.57 47.0644 151.57 47.065C151.57 47.0656 151.57 47.0662 151.57 47.0669C151.57 47.0675 151.57 47.0681 151.57 47.0687C151.57 47.0694 151.57 47.07 151.57 47.0706C151.57 47.0712 151.57 47.0719 151.57 47.0725C151.57 47.0731 151.57 47.0737 151.57 47.0744C151.57 47.075 151.57 47.0756 151.57 47.0763C151.57 47.0769 151.57 47.0775 151.57 47.0781C151.57 47.0787 151.57 47.0794 151.57 47.08C151.57 47.0806 151.57 47.0812 151.57 47.0819C151.57 47.0825 151.57 47.0831 151.57 47.0837C151.57 47.0844 151.57 47.085 151.57 47.0856C151.57 47.0862 151.57 47.0869 151.57 47.0875C151.57 47.0881 151.57 47.0887 151.57 47.0894C151.57 47.09 151.57 47.0906 151.57 47.0912C151.57 47.0919 151.57 47.0925 151.57 47.0931C151.57 47.0938 151.57 47.0944 151.57 47.095C151.57 47.0956 151.57 47.0962 151.57 47.0969C151.57 47.0975 151.57 47.0981 151.57 47.0987C151.57 47.0994 151.57 47.1 151.57 47.1006C151.57 47.1012 151.57 47.1019 151.57 47.1025C151.57 47.1031 151.57 47.1038 151.57 47.1044C151.57 47.105 151.57 47.1056 151.57 47.1062C151.57 47.1069 151.57 47.1075 151.57 47.1081C151.57 47.1087 151.57 47.1094 151.57 47.11C151.57 47.1106 151.57 47.1112 151.57 47.1119C151.57 47.1125 151.57 47.1131 151.57 47.1137C151.57 47.1144 151.57 47.115 151.57 47.1156C151.57 47.1162 151.57 47.1169 151.57 47.1175C151.57 47.1181 151.57 47.1187 151.57 47.1194C151.57 47.12 151.57 47.1206 151.57 47.1213C151.57 47.1219 151.57 47.1225 151.57 47.1231C151.57 47.1237 151.57 47.1244 151.57 47.125C151.57 47.1256 151.57 47.1262 151.57 47.1269C151.57 47.1275 151.57 47.1281 151.57 47.1287C151.57 47.1294 151.57 47.13 151.57 47.1306C151.57 47.1312 151.57 47.1319 151.57 47.1325C151.57 47.1331 151.57 47.1337 151.57 47.1344C151.57 47.135 151.57 47.1356 151.57 47.1362C151.57 47.1369 151.57 47.1375 151.57 47.1381C151.57 47.1388 151.57 47.1394 151.57 47.14C151.57 47.1406 151.57 47.1412 151.57 47.1419C151.57 47.1425 151.57 47.1431 151.57 47.1437C151.57 47.1444 151.57 47.145 151.57 47.1456C151.57 47.1462 151.57 47.1469 151.57 47.1475C151.57 47.1481 151.57 47.1487 151.57 47.1494C151.57 47.15 151.57 47.1506 151.57 47.1512C151.57 47.1519 151.57 47.1525 151.57 47.1531C151.57 47.1537 151.57 47.1544 151.57 47.155C151.57 47.1556 151.57 47.1562 151.57 47.1569C151.57 47.1575 151.57 47.1581 151.57 47.1587C151.57 47.1594 151.57 47.16 151.57 47.1606C151.57 47.1612 151.57 47.1619 151.57 47.1625C151.57 47.1631 151.57 47.1637 151.57 47.1644C151.57 47.165 151.57 47.1656 151.57 47.1663C151.57 47.1669 151.57 47.1675 151.57 47.1681C151.57 47.1687 151.57 47.1694 151.57 47.17C151.57 47.1706 151.57 47.1712 151.57 47.1719C151.57 47.1725 151.57 47.1731 151.57 47.1737C151.57 47.1744 151.57 47.175 151.57 47.1756C151.57 47.1762 151.57 47.1769 151.57 47.1775C151.57 47.1781 151.57 47.1787 151.57 47.1794C151.57 47.18 151.57 47.1806 151.57 47.1812C151.57 47.1819 151.57 47.1825 151.57 47.1831C151.57 47.1838 151.57 47.1844 151.57 47.185C151.57 47.1856 151.57 47.1862 151.57 47.1869C151.57 47.1875 151.57 47.1881 151.57 47.1887C151.57 47.1894 151.57 47.19 151.57 47.1906C151.57 47.1912 151.57 47.1919 151.57 47.1925C151.57 47.1931 151.57 47.1937 151.57 47.1944C151.57 47.195 151.57 47.1956 151.57 47.1962C151.57 47.1969 151.57 47.1975 151.57 47.1981C151.57 47.1987 151.57 47.1994 151.57 47.2C151.57 47.2006 151.57 47.2013 151.57 47.2019C151.57 47.2025 151.57 47.2031 151.57 47.2037C151.57 47.2044 151.57 47.205 151.57 47.2056C151.57 47.2062 151.57 47.2069 151.57 47.2075C151.57 47.2081 151.57 47.2087 151.57 47.2094C151.57 47.21 151.57 47.2106 151.57 47.2112C151.57 47.2119 151.57 47.2125 151.57 47.2131C151.57 47.2137 151.57 47.2144 151.57 47.215C151.57 47.2156 151.57 47.2162 151.57 47.2169C151.57 47.2175 151.57 47.2181 151.57 47.2188C151.57 47.2194 151.57 47.22 151.57 47.2206C151.57 47.2212 151.57 47.2219 151.57 47.2225C151.57 47.2231 151.57 47.2237 151.57 47.2244C151.57 47.225 151.57 47.2256 151.57 47.2262C151.57 47.2269 151.57 47.2275 151.57 47.2281C151.57 47.2287 151.57 47.2294 151.57 47.23C151.57 47.2306 151.57 47.2312 151.57 47.2319C151.57 47.2325 151.57 47.2331 151.57 47.2337C151.57 47.2344 151.57 47.235 151.57 47.2356C151.57 47.2362 151.57 47.2369 151.57 47.2375C151.57 47.2381 151.57 47.2387 151.57 47.2394C151.57 47.24 151.57 47.2406 151.57 47.2412C151.57 47.2419 151.57 47.2425 151.57 47.2431C151.57 47.2437 151.57 47.2444 151.57 47.245C151.57 47.2456 151.57 47.2463 151.57 47.2469C151.57 47.2475 151.57 47.2481 151.57 47.2487C151.57 47.2494 151.57 47.25 151.57 47.2506C151.57 47.2512 151.57 47.2519 151.57 47.2525C151.57 47.2531 151.57 47.2537 151.57 47.2544C151.57 47.255 151.57 47.2556 151.57 47.2562C151.57 47.2569 151.57 47.2575 151.57 47.2581C151.57 47.2587 151.57 47.2594 151.57 47.26C151.57 47.2606 151.57 47.2612 151.57 47.2619C151.57 47.2625 151.57 47.2631 151.57 47.2638C151.57 47.2644 151.57 47.265 151.57 47.2656C151.57 47.2662 151.57 47.2669 151.57 47.2675C151.57 47.2681 151.57 47.2687 151.57 47.2694C151.57 47.27 151.57 47.2706 151.57 47.2712C151.57 47.2719 151.57 47.2725 151.57 47.2731C151.57 47.2737 151.57 47.2744 151.57 47.275C151.57 47.2756 151.57 47.2762 151.57 47.2769C151.57 47.2775 151.57 47.2781 151.57 47.2787C151.57 47.2794 151.57 47.28 151.57 47.2806C151.57 47.2812 151.57 47.2819 151.57 47.2825C151.57 47.2831 151.57 47.2837 151.57 47.2844C151.57 47.285 151.57 47.2856 151.57 47.2862C151.57 47.2869 151.57 47.2875 151.57 47.2881C151.57 47.2887 151.57 47.2894 151.57 47.29C151.57 47.2906 151.57 47.2912 151.57 47.2919C151.57 47.2925 151.57 47.2931 151.57 47.2937C151.57 47.2944 151.57 47.295 151.57 47.2956C151.57 47.2962 151.57 47.2969 151.57 47.2975C151.57 47.2981 151.57 47.2987 151.57 47.2994C151.57 47.3 151.57 47.3006 151.57 47.3012C151.57 47.3019 151.57 47.3025 151.57 47.3031C151.57 47.3037 151.57 47.3044 151.57 47.305C151.57 47.3056 151.57 47.3062 151.57 47.3069C151.57 47.3075 151.57 47.3081 151.57 47.3088C151.57 47.3094 151.57 47.31 151.57 47.3106C151.57 47.3112 151.57 47.3119 151.57 47.3125C151.57 47.3131 151.57 47.3137 151.57 47.3144C151.57 47.315 151.57 47.3156 151.57 47.3162C151.57 47.3169 151.57 47.3175 151.57 47.3181C151.57 47.3187 151.57 47.3194 151.57 47.32C151.57 47.3206 151.57 47.3212 151.57 47.3219C151.57 47.3225 151.57 47.3231 151.57 47.3237C151.57 47.3244 151.57 47.325 151.57 47.3256C151.57 47.3263 151.57 47.3269 151.57 47.3275C151.57 47.3281 151.57 47.3287 151.57 47.3294C151.57 47.33 151.57 47.3306 151.57 47.3312C151.57 47.3319 151.57 47.3325 151.57 47.3331C151.57 47.3337 151.57 47.3344 151.57 47.335C151.57 47.3356 151.57 47.3362 151.57 47.3369C151.57 47.3375 151.57 47.3381 151.57 47.3387C151.57 47.3394 151.57 47.34 151.57 47.3406C151.57 47.3412 151.57 47.3419 151.57 47.3425C151.57 47.3431 151.57 47.3438 151.57 47.3444C151.57 47.345 151.57 47.3456 151.57 47.3462C151.57 47.3469 151.57 47.3475 151.57 47.3481C151.57 47.3487 151.57 47.3494 151.57 47.35C151.57 47.3506 151.57 47.3512 151.57 47.3519C151.57 47.3525 151.57 47.3531 151.57 47.3537C151.57 47.3544 151.57 47.355 151.57 47.3556C151.57 47.3562 151.57 47.3569 151.57 47.3575C151.57 47.3581 151.57 47.3587 151.57 47.3594C151.57 47.36 151.57 47.3606 151.57 47.3612C151.57 47.3619 151.57 47.3625 151.57 47.3631C151.57 47.3637 151.57 47.3644 151.57 47.365C151.57 47.3656 151.57 47.3662 151.57 47.3669C151.57 47.3675 151.57 47.3681 151.57 47.3687C151.57 47.3694 151.57 47.37 151.57 47.3706C151.57 47.3712 151.57 47.3719 151.57 47.3725C151.57 47.3731 151.57 47.3737 151.57 47.3744C151.57 47.375 151.57 47.3756 151.57 47.3762C151.57 47.3769 151.57 47.3775 151.57 47.3781C151.57 47.3787 151.57 47.3794 151.57 47.38C151.57 47.3806 151.57 47.3812 151.57 47.3819C151.57 47.3825 151.57 47.3831 151.57 47.3837C151.57 47.3844 151.57 47.385 151.57 47.3856C151.57 47.3862 151.57 47.3869 151.57 47.3875C151.57 47.3881 151.57 47.3888 151.57 47.3894C151.57 47.39 151.57 47.3906 151.57 47.3912C151.57 47.3919 151.57 47.3925 151.57 47.3931C151.57 47.3937 151.57 47.3944 151.57 47.395C151.57 47.3956 151.57 47.3962 151.57 47.3969C151.57 47.3975 151.57 47.3981 151.57 47.3987C151.57 47.3994 151.57 47.4 151.57 47.4006C151.57 47.4012 151.57 47.4019 151.57 47.4025C151.57 47.4031 151.57 47.4037 151.57 47.4044C151.57 47.405 151.57 47.4056 151.57 47.4062C151.57 47.4069 151.57 47.4075 151.57 47.4081C151.57 47.4087 151.57 47.4094 151.57 47.41C151.57 47.4106 151.57 47.4112 151.57 47.4119C151.57 47.4125 151.57 47.4131 151.57 47.4137C151.57 47.4144 151.57 47.415 151.57 47.4156C151.57 47.4162 151.57 47.4169 151.57 47.4175C151.57 47.4181 151.57 47.4187 151.57 47.4194C151.57 47.42 151.57 47.4206 151.57 47.4212C151.57 47.4219 151.57 47.4225 151.57 47.4231C151.57 47.4237 151.57 47.4244 151.57 47.425C151.57 47.4256 151.57 47.4262 151.57 47.4269C151.57 47.4275 151.57 47.4281 151.57 47.4287C151.57 47.4294 151.57 47.43 151.57 47.4306C151.57 47.4312 151.57 47.4319 151.57 47.4325C151.57 47.4331 151.57 47.4337 151.57 47.4344C151.57 47.435 151.57 47.4356 151.57 47.4362C151.57 47.4369 151.57 47.4375 151.57 47.4381C151.57 47.4387 151.57 47.4394 151.57 47.44C151.57 47.4406 151.57 47.4412 151.57 47.4419C151.57 47.4425 151.57 47.4431 151.57 47.4437C151.57 47.4444 151.57 47.445 151.57 47.4456C151.57 47.4462 151.57 47.4469 151.57 47.4475C151.57 47.4481 151.57 47.4487 151.57 47.4494C151.57 47.45 151.57 47.4506 151.57 47.4513C151.57 47.4519 151.57 47.4525 151.57 47.4531C151.57 47.4537 151.57 47.4544 151.57 47.455C151.57 47.4556 151.57 47.4562 151.57 47.4569C151.57 47.4575 151.57 47.4581 151.57 47.4587C151.57 47.4594 151.57 47.46 151.57 47.4606C151.57 47.4612 151.57 47.4619 151.57 47.4625C151.57 47.4631 151.57 47.4637 151.57 47.4644C151.57 47.465 151.57 47.4656 151.57 47.4662C151.57 47.4669 151.57 47.4675 151.57 47.4681C151.57 47.4688 151.57 47.4694 151.57 47.47C151.57 47.4706 151.57 47.4712 151.57 47.4719C151.57 47.4725 151.57 47.4731 151.57 47.4737C151.57 47.4744 151.57 47.475 151.57 47.4756C151.57 47.4762 151.57 47.4769 151.57 47.4775C151.57 47.4781 151.57 47.4787 151.57 47.4794C151.57 47.48 151.57 47.4806 151.57 47.4812C151.57 47.4819 151.57 47.4825 151.57 47.4831C151.57 47.4837 151.57 47.4844 151.57 47.485C151.57 47.4856 151.57 47.4862 151.57 47.4869C151.57 47.4875 151.57 47.4881 151.57 47.4887C151.57 47.4894 151.57 47.49 151.57 47.4906C151.57 47.4912 151.57 47.4919 151.57 47.4925C151.57 47.4931 151.57 47.4937 151.57 47.4944C151.57 47.495 151.57 47.4956 151.57 47.4962C151.57 47.4969 151.57 47.4975 151.57 47.4981C151.57 47.4987 151.57 47.4994 151.57 47.5C151.57 47.5006 151.57 47.5012 151.57 47.5019C151.57 47.5025 151.57 47.5031 151.57 47.5037C151.57 47.5044 151.57 47.505 151.57 47.5056C151.57 47.5062 151.57 47.5069 151.57 47.5075C151.57 47.5081 151.57 47.5087 151.57 47.5094C151.57 47.51 151.57 47.5106 151.57 47.5112C151.57 47.5119 151.57 47.5125 151.57 47.5131C151.57 47.5138 151.57 47.5144 151.57 47.515C151.57 47.5156 151.57 47.5162 151.57 47.5169C151.57 47.5175 151.57 47.5181 151.57 47.5187C151.57 47.5194 151.57 47.52 151.57 47.5206C151.57 47.5212 151.57 47.5219 151.57 47.5225C151.57 47.5231 151.57 47.5237 151.57 47.5244C151.57 47.525 151.57 47.5256 151.57 47.5262C151.57 47.5269 151.57 47.5275 151.57 47.5281C151.57 47.5287 151.57 47.5294 151.57 47.53C151.57 47.5306 151.57 47.5312 151.57 47.5319C151.57 47.5325 151.57 47.5331 151.57 47.5337C151.57 47.5344 151.57 47.535 151.57 47.5356C151.57 47.5362 151.57 47.5369 151.57 47.5375C151.57 47.5381 151.57 47.5387 151.57 47.5394C151.57 47.54 151.57 47.5406 151.57 47.5412C151.57 47.5419 151.57 47.5425 151.57 47.5431C151.57 47.5437 151.57 47.5444 151.57 47.545C151.57 47.5456 151.57 47.5462 151.57 47.5469C151.57 47.5475 151.57 47.5481 151.57 47.5487C151.57 47.5494 151.57 47.55 151.57 47.5506C151.57 47.5512 151.57 47.5519 151.57 47.5525C151.57 47.5531 151.57 47.5537 151.57 47.5544C151.57 47.555 151.57 47.5556 151.57 47.5562C151.57 47.5569 151.57 47.5575 151.57 47.5581C151.57 47.5587 151.57 47.5594 151.57 47.56C151.57 47.5606 151.57 47.5612 151.57 47.5619C151.57 47.5625 151.57 47.5631 151.57 47.5637C151.57 47.5644 151.57 47.565 151.57 47.5656C151.57 47.5662 151.57 47.5669 151.57 47.5675C151.57 47.5681 151.57 47.5687 151.57 47.5694C151.57 47.57 151.57 47.5706 151.57 47.5712C151.57 47.5719 151.57 47.5725 151.57 47.5731C151.57 47.5737 151.57 47.5744 151.57 47.575C151.57 47.5756 151.57 47.5762 151.57 47.5769C151.57 47.5775 151.57 47.5781 151.57 47.5787C151.57 47.5794 151.57 47.58 151.57 47.5806C151.57 47.5812 151.57 47.5819 151.57 47.5825C151.57 47.5831 151.57 47.5837 151.57 47.5844C151.57 47.585 151.57 47.5856 151.57 47.5862C151.57 47.5869 151.57 47.5875 151.57 47.5881C151.57 47.5887 151.57 47.5894 151.57 47.59C151.57 47.5906 151.57 47.5912 151.57 47.5919C151.57 47.5925 151.57 47.5931 151.57 47.5938C151.57 47.5944 151.57 47.595 151.57 47.5956C151.57 47.5962 151.57 47.5969 151.57 47.5975C151.57 47.5981 151.57 47.5987 151.57 47.5994C151.57 47.6 151.57 47.6006 151.57 47.6012C151.57 47.6019 151.57 47.6025 151.57 47.6031C151.57 47.6037 151.57 47.6044 151.57 47.605C151.57 47.6056 151.57 47.6062 151.57 47.6069C151.57 47.6075 151.57 47.6081 151.57 47.6087C151.57 47.6094 151.57 47.61 151.57 47.6106C151.57 47.6112 151.57 47.6119 151.57 47.6125C151.57 47.6131 151.57 47.6137 151.57 47.6144C151.57 47.615 151.57 47.6156 151.57 47.6162C151.57 47.6169 151.57 47.6175 151.57 47.6181C151.57 47.6187 151.57 47.6194 151.57 47.62C151.57 47.6206 151.57 47.6212 151.57 47.6219C151.57 47.6225 151.57 47.6231 151.57 47.6237C151.57 47.6244 151.57 47.625 151.57 47.6256C151.57 47.6262 151.57 47.6269 151.57 47.6275C151.57 47.6281 151.57 47.6287 151.57 47.6294C151.57 47.63 151.57 47.6306 151.57 47.6312C151.57 47.6319 151.57 47.6325 151.57 47.6331C151.57 47.6337 151.57 47.6344 151.57 47.635C151.57 47.6356 151.57 47.6362 151.57 47.6369C151.57 47.6375 151.57 47.6381 151.57 47.6387C151.57 47.6394 151.57 47.64 151.57 47.6406C151.57 47.6412 151.57 47.6419 151.57 47.6425C151.57 47.6431 151.57 47.6437 151.57 47.6444C151.57 47.645 151.57 47.6456 151.57 47.6462C151.57 47.6469 151.57 47.6475 151.57 47.6481C151.57 47.6487 151.57 47.6494 151.57 47.65C151.57 47.6506 151.57 47.6512 151.57 47.6519C151.57 47.6525 151.57 47.6531 151.57 47.6537C151.57 47.6544 151.57 47.655 151.57 47.6556C151.57 47.6562 151.57 47.6569 151.57 47.6575C151.57 47.6581 151.57 47.6587 151.57 47.6594C151.57 47.66 151.57 47.6606 151.57 47.6612C151.57 47.6619 151.57 47.6625 151.57 47.6631C151.57 47.6637 151.57 47.6644 151.57 47.665C151.57 47.6656 151.57 47.6662 151.57 47.6669C151.57 47.6675 151.57 47.6681 151.57 47.6687C151.57 47.6694 151.57 47.67 151.57 47.6706C151.57 47.6712 151.57 47.6719 151.57 47.6725C151.57 47.6731 151.57 47.6737 151.57 47.6744C151.57 47.675 151.57 47.6756 151.57 47.6762C151.57 47.6769 151.57 47.6775 151.57 47.6781C151.57 47.6787 151.57 47.6794 151.57 47.68C151.57 47.6806 151.57 47.6812 151.57 47.6819C151.57 47.6825 151.57 47.6831 151.57 47.6837C151.57 47.6844 151.57 47.685 151.57 47.6856C151.57 47.6862 151.57 47.6869 151.57 47.6875C151.57 47.6881 151.57 47.6887 151.57 47.6894C151.57 47.69 151.57 47.6906 151.57 47.6912C151.57 47.6919 151.57 47.6925 151.57 47.6931C151.57 47.6937 151.57 47.6944 151.57 47.695C151.57 47.6956 151.57 47.6962 151.57 47.6969C151.57 47.6975 151.57 47.6981 151.57 47.6987C151.57 47.6994 151.57 47.7 151.57 47.7006C151.57 47.7012 151.57 47.7019 151.57 47.7025C151.57 47.7031 151.57 47.7037 151.57 47.7044C151.57 47.705 151.57 47.7056 151.57 47.7062C151.57 47.7069 151.57 47.7075 151.57 47.7081C151.57 47.7087 151.57 47.7094 151.57 47.71C151.57 47.7106 151.57 47.7112 151.57 47.7119C151.57 47.7125 151.57 47.7131 151.57 47.7137C151.57 47.7144 151.57 47.715 151.57 47.7156C151.57 47.7162 151.57 47.7169 151.57 47.7175C151.57 47.7181 151.57 47.7187 151.57 47.7194C151.57 47.72 151.57 47.7206 151.57 47.7212C151.57 47.7219 151.57 47.7225 151.57 47.7231C151.57 47.7237 151.57 47.7244 151.57 47.725C151.57 47.7256 151.57 47.7262 151.57 47.7269C151.57 47.7275 151.57 47.7281 151.57 47.7287C151.57 47.7294 151.57 47.73 151.57 47.7306C151.57 47.7312 151.57 47.7319 151.57 47.7325C151.57 47.7331 151.57 47.7337 151.57 47.7344C151.57 47.735 151.57 47.7356 151.57 47.7362C151.57 47.7369 151.57 47.7375 151.57 47.7381C151.57 47.7387 151.57 47.7394 151.57 47.74C151.57 47.7406 151.57 47.7412 151.57 47.7419C151.57 47.7425 151.57 47.7431 151.57 47.7437C151.57 47.7444 151.57 47.745 151.57 47.7456C151.57 47.7462 151.57 47.7469 151.57 47.7475C151.57 47.7481 151.57 47.7487 151.57 47.7494C151.57 47.75 151.57 47.7506 151.57 47.7512C151.57 47.7519 151.57 47.7525 151.57 47.7531C151.57 47.7537 151.57 47.7544 151.57 47.755C151.57 47.7556 151.57 47.7562 151.57 47.7569C151.57 47.7575 151.57 47.7581 151.57 47.7587C151.57 47.7594 151.57 47.76 151.57 47.7606C151.57 47.7612 151.57 47.7619 151.57 47.7625C151.57 47.7631 151.57 47.7637 151.57 47.7644C151.57 47.765 151.57 47.7656 151.57 47.7662C151.57 47.7669 151.57 47.7675 151.57 47.7681C151.57 47.7687 151.57 47.7694 151.57 47.77C151.57 47.7706 151.57 47.7712 151.57 47.7719C151.57 47.7725 151.57 47.7731 151.57 47.7737C151.57 47.7744 151.57 47.775 151.57 47.7756C151.57 47.7762 151.57 47.7769 151.57 47.7775C151.57 47.7781 151.57 47.7787 151.57 47.7794C151.57 47.78 151.57 47.7806 151.57 47.7812C151.57 47.7819 151.57 47.7825 151.57 47.7831C151.57 47.7837 151.57 47.7844 151.57 47.785C151.57 47.7856 151.57 47.7862 151.57 47.7869C151.57 47.7875 151.57 47.7881 151.57 47.7887C151.57 47.7894 151.57 47.79 151.57 47.7906C151.57 47.7912 151.57 47.7919 151.57 47.7925C151.57 47.7931 151.57 47.7937 151.57 47.7944C151.57 47.795 151.57 47.7956 151.57 47.7962C151.57 47.7969 151.57 47.7975 151.57 47.7981C151.57 47.7987 151.57 47.7994 151.57 47.8H153.57ZM153.57 46.84V46.12H151.57V46.84H153.57ZM169.498 45.8L168.591 46.2207L169.206 47.5485L170.219 46.4922L169.498 45.8ZM178.338 45.08L177.675 45.8286L177.681 45.834L177.687 45.8393L178.338 45.08ZM179.138 53L178.171 52.7455L178.169 52.7535L178.167 52.7615L179.138 53ZM178.298 56.28L177.335 56.0104L177.331 56.0239L177.328 56.0375L178.298 56.28ZM179.978 57.76L179.324 57.0032L179.978 57.76ZM181.738 56.12L182.445 56.8271L182.453 56.8193L182.46 56.8112L181.738 56.12ZM183.338 54.44L182.631 53.7329L182.621 53.7424L182.612 53.7523L183.338 54.44ZM182.178 60.44L182.684 61.3027L182.781 61.2455L182.864 61.1679L182.178 60.44ZM176.098 63.12L176.805 62.4129L176.512 62.12H176.098V63.12ZM173.298 53.96L172.325 53.7274L172.323 53.7375L172.321 53.7476L173.298 53.96ZM169.298 50.6L168.445 50.0774L168.443 50.0814L169.298 50.6ZM167.298 55.68L166.317 55.4867L166.298 55.5825V55.68H167.298ZM167.698 58.76L166.734 59.0276L166.738 59.04L166.741 59.0522L167.698 58.76ZM164.738 63.44L165.097 64.3734L165.1 64.3722L164.738 63.44ZM162.418 62.6L161.473 62.9271L161.478 62.9431L161.484 62.959L162.418 62.6ZM162.498 51.16L163.483 51.332L163.484 51.3248L163.485 51.3176L162.498 51.16ZM165.218 44.16L166.055 44.7075L166.059 44.7008L165.218 44.16ZM166.778 44.04C166.908 44.04 167.133 44.0946 167.466 44.4319C167.806 44.7771 168.188 45.3525 168.591 46.2207L170.405 45.3793C169.954 44.4075 169.457 43.6029 168.89 43.0281C168.316 42.4454 167.608 42.04 166.778 42.04V44.04ZM170.219 46.4922C171.281 45.3858 172.565 44.84 174.138 44.84V42.84C172.03 42.84 170.221 43.6009 168.776 45.1078L170.219 46.4922ZM174.138 44.84C175.878 44.84 176.997 45.228 177.675 45.8286L179.001 44.3314C177.812 43.2787 176.131 42.84 174.138 42.84V44.84ZM177.687 45.8393C178.351 46.4088 178.738 47.25 178.738 48.52H180.738C180.738 46.8033 180.191 45.3512 178.989 44.3207L177.687 45.8393ZM178.738 48.52C178.738 49.8949 178.55 51.3027 178.171 52.7455L180.105 53.2545C180.525 51.6573 180.738 50.0785 180.738 48.52H178.738ZM178.167 52.7615C177.794 54.2807 177.517 55.3605 177.335 56.0104L179.261 56.5496C179.452 55.8662 179.735 54.7593 180.109 53.2385L178.167 52.7615ZM177.328 56.0375C177.157 56.7187 177.058 57.3399 177.058 57.88H179.058C179.058 57.5668 179.118 57.1213 179.268 56.5225L177.328 56.0375ZM177.058 57.88C177.058 58.1769 177.103 58.5766 177.344 58.9265C177.631 59.344 178.073 59.52 178.498 59.52V57.52C178.546 57.52 178.636 57.529 178.742 57.5802C178.852 57.6336 178.936 57.7127 178.992 57.7935C179.086 57.93 179.058 58.0098 179.058 57.88H177.058ZM178.498 59.52C179.279 59.52 180.01 59.0532 180.631 58.5168L179.324 57.0032C179.069 57.2234 178.865 57.3612 178.711 57.4404C178.554 57.521 178.49 57.52 178.498 57.52V59.52ZM180.631 58.5168C181.238 57.9932 181.842 57.4298 182.445 56.8271L181.031 55.4129C180.46 55.9835 179.891 56.5135 179.324 57.0032L180.631 58.5168ZM182.46 56.8112C183.048 56.197 183.582 55.6358 184.064 55.1277L182.612 53.7523C182.133 54.2575 181.601 54.8164 181.015 55.4288L182.46 56.8112ZM184.045 55.1471C184.282 54.9095 184.454 54.7603 184.568 54.6774C184.625 54.636 184.646 54.6265 184.637 54.6308C184.631 54.6335 184.608 54.6443 184.569 54.655C184.532 54.6655 184.465 54.68 184.378 54.68V52.68C184.121 52.68 183.91 52.762 183.779 52.8242C183.636 52.8918 183.504 52.9774 183.388 53.0626C183.155 53.233 182.9 53.4638 182.631 53.7329L184.045 55.1471ZM184.378 54.68C184.251 54.68 184.109 54.6353 183.994 54.5422C183.895 54.4624 183.868 54.3889 183.873 54.4007C183.878 54.4114 183.896 54.4643 183.912 54.581C183.928 54.6943 183.938 54.8453 183.938 55.04H185.938C185.938 54.548 185.891 54.0497 185.722 53.6392C185.634 53.4245 185.491 53.1809 185.252 52.9878C184.997 52.7814 184.691 52.68 184.378 52.68V54.68ZM183.938 55.04C183.938 56.544 183.205 58.0983 181.492 59.7121L182.864 61.1679C184.83 59.315 185.938 57.2693 185.938 55.04H183.938ZM181.672 59.5773C180.138 60.4765 178.904 61.1378 177.96 61.5713C177.488 61.7882 177.104 61.9409 176.802 62.0378C176.486 62.1392 176.318 62.16 176.258 62.16V64.16C176.624 64.16 177.023 64.0675 177.413 63.9422C177.818 63.8124 178.281 63.6252 178.795 63.3887C179.825 62.9155 181.124 62.2169 182.684 61.3027L181.672 59.5773ZM176.258 62.16C176.266 62.16 176.321 62.1599 176.4 62.1799C176.474 62.1983 176.644 62.2524 176.805 62.4129L175.391 63.8271C175.578 64.0143 175.788 64.0884 175.915 64.1201C176.048 64.1534 176.17 64.16 176.258 64.16V62.16ZM176.098 62.12C175.351 62.12 174.884 61.8504 174.546 61.31C174.159 60.6913 173.898 59.6349 173.898 58H171.898C171.898 59.7785 172.17 61.2821 172.85 62.37C173.579 63.5363 174.711 64.12 176.098 64.12V62.12ZM173.898 58C173.898 56.5931 174.026 55.3188 174.275 54.1724L172.321 53.7476C172.037 55.0545 171.898 56.4735 171.898 58H173.898ZM174.27 54.1926C174.564 52.9659 174.777 52.0721 174.911 51.5116L172.965 51.0484C172.832 51.6079 172.619 52.5008 172.325 53.7274L174.27 54.1926ZM174.911 51.5116C175.062 50.8743 175.138 50.2232 175.138 49.56H173.138C173.138 50.0702 173.08 50.5657 172.965 51.0484L174.911 51.5116ZM175.138 49.56C175.138 48.8821 174.933 48.2044 174.369 47.7207C173.834 47.2624 173.137 47.12 172.458 47.12V49.12C172.898 49.12 173.042 49.2176 173.067 49.2393C173.076 49.247 173.088 49.2583 173.101 49.2924C173.116 49.3326 173.138 49.415 173.138 49.56H175.138ZM172.458 47.12C170.813 47.12 169.5 48.3564 168.445 50.0774L170.15 51.1226C171.122 49.5369 171.916 49.12 172.458 49.12V47.12ZM168.443 50.0814C167.399 51.8022 166.687 53.6049 166.317 55.4867L168.279 55.8733C168.602 54.2351 169.223 52.6512 170.153 51.1186L168.443 50.0814ZM166.298 55.68V55.96H168.298V55.68H166.298ZM166.298 55.96C166.298 56.9656 166.446 57.989 166.734 59.0276L168.661 58.4924C168.417 57.611 168.298 56.7678 168.298 55.96H166.298ZM166.741 59.0522C167.039 60.0256 167.138 60.5566 167.138 60.76H169.138C169.138 60.2167 168.943 59.4144 168.654 58.4678L166.741 59.0522ZM167.138 60.76C167.138 60.7625 167.138 60.9551 166.669 61.3246C166.215 61.6821 165.471 62.0827 164.376 62.5078L165.1 64.3722C166.272 63.9173 167.227 63.4313 167.907 62.8954C168.571 62.3715 169.138 61.6642 169.138 60.76H167.138ZM164.379 62.5067C164.105 62.612 163.924 62.64 163.818 62.64V64.64C164.245 64.64 164.677 64.5347 165.097 64.3733L164.379 62.5067ZM163.818 62.64C163.666 62.64 163.6 62.6042 163.564 62.5773C163.52 62.5444 163.435 62.4594 163.351 62.241L161.484 62.959C161.667 63.4339 161.949 63.8689 162.371 64.1827C162.802 64.5025 163.303 64.64 163.818 64.64V62.64ZM163.363 62.2729C163.18 61.7443 163.058 60.8035 163.058 59.36H161.058C161.058 60.8498 161.176 62.069 161.473 62.9271L163.363 62.2729ZM163.058 59.36C163.058 55.5788 163.206 52.9201 163.483 51.332L161.513 50.988C161.203 52.7599 161.058 55.5679 161.058 59.36H163.058ZM163.485 51.3176C163.863 48.9525 164.717 46.7517 166.055 44.7075L164.381 43.6125C162.892 45.8883 161.933 48.3542 161.51 51.0024L163.485 51.3176ZM166.059 44.7008C166.467 44.0659 166.723 44.04 166.778 44.04V42.04C165.712 42.04 164.929 42.7607 164.377 43.6192L166.059 44.7008ZM207.382 57.84L208.24 58.3545L208.246 58.3439L207.382 57.84ZM205.182 60.44L205.842 61.1912L205.844 61.1898L205.182 60.44ZM202.222 62.36L201.802 61.4527L202.222 62.36ZM196.142 59.52L197.125 59.3344L196.653 56.8381L195.297 58.986L196.142 59.52ZM184.422 61.56L183.707 62.2589L184.422 61.56ZM182.742 57.28L183.742 57.2959L183.742 57.2879V57.28H182.742ZM187.262 46.56L186.611 45.8014L186.607 45.8045L187.262 46.56ZM196.142 44.12L195.879 45.0848L195.89 45.0876L196.142 44.12ZM197.062 44.36L196.81 45.3276L197.823 45.5919L198.04 44.5678L197.062 44.36ZM200.862 34.04L201.631 34.679L201.636 34.6732L200.862 34.04ZM204.462 34.76L203.614 35.29L203.622 35.3025L203.63 35.3147L204.462 34.76ZM205.062 38.92L204.106 38.6288V38.6288L205.062 38.92ZM204.342 40.64L203.466 40.1581L203.462 40.1661L203.457 40.1743L204.342 40.64ZM203.422 42.16L204.233 42.7455L204.24 42.7352L204.247 42.7247L203.422 42.16ZM202.382 43.64L201.557 43.0753L201.461 43.216L201.416 43.3807L202.382 43.64ZM200.662 53.32L201.657 53.4247L201.657 53.4239L200.662 53.32ZM206.462 54.36L207.183 55.0531L207.194 55.0412L207.205 55.029L206.462 54.36ZM193.622 58L193.026 57.1972L193.015 57.2056L193.622 58ZM195.782 54.52L196.737 54.8174L196.779 54.683L196.782 54.5422L195.782 54.52ZM196.622 46.6L197.607 46.7733L197.861 45.3325L196.426 45.6194L196.622 46.6ZM191.022 49.72L190.304 49.0246L191.022 49.72ZM207.502 54.56C207.388 54.56 207.263 54.5162 207.169 54.4362C207.094 54.3723 207.089 54.3276 207.111 54.3844C207.162 54.514 207.222 54.8227 207.222 55.4H209.222C209.222 54.7506 209.163 54.1393 208.973 53.6556C208.876 53.4058 208.721 53.1311 208.466 52.9138C208.192 52.6805 207.856 52.56 207.502 52.56V54.56ZM207.222 55.4C207.222 55.8081 207.042 56.4385 206.518 57.3361L208.246 58.3439C208.842 57.3215 209.222 56.3253 209.222 55.4H207.222ZM206.525 57.3255C206.023 58.1616 205.359 58.9506 204.521 59.6902L205.844 61.1898C206.819 60.3294 207.621 59.385 208.24 58.3545L206.525 57.3255ZM204.522 59.6888C203.716 60.3971 202.811 60.9852 201.802 61.4527L202.643 63.2673C203.82 62.7215 204.888 62.0296 205.842 61.1912L204.522 59.6888ZM201.802 61.4527C200.819 61.9079 199.896 62.12 199.022 62.12V64.12C200.229 64.12 201.438 63.8254 202.643 63.2673L201.802 61.4527ZM199.022 62.12C198.609 62.12 198.284 61.9712 197.983 61.5953C197.648 61.1768 197.337 60.4588 197.125 59.3344L195.16 59.7056C195.401 60.9812 195.796 62.0632 196.421 62.8447C197.081 63.6688 197.969 64.12 199.022 64.12V62.12ZM195.297 58.986C193.891 61.2121 191.847 62.32 189.022 62.32V64.32C192.491 64.32 195.194 62.8946 196.988 60.054L195.297 58.986ZM189.022 62.32C187.322 62.32 186.064 61.8091 185.137 60.8611L183.707 62.2589C185.074 63.6576 186.883 64.32 189.022 64.32V62.32ZM185.137 60.8611C184.182 59.8836 183.72 58.7164 183.742 57.2959L181.742 57.2641C181.712 59.2036 182.369 60.8897 183.707 62.2589L185.137 60.8611ZM183.742 57.28C183.742 52.9925 185.154 49.7118 187.917 47.3155L186.607 45.8045C183.343 48.6349 181.742 52.5009 181.742 57.28H183.742ZM187.914 47.3186C189.855 45.6514 191.792 44.88 193.742 44.88V42.88C191.213 42.88 188.83 43.8953 186.611 45.8014L187.914 47.3186ZM193.742 44.88C194.717 44.88 195.416 44.9585 195.879 45.0848L196.405 43.1552C195.695 42.9615 194.794 42.88 193.742 42.88V44.88ZM195.89 45.0876L196.81 45.3276L197.315 43.3924L196.395 43.1524L195.89 45.0876ZM198.04 44.5678C199.134 39.4213 200.364 36.2046 201.631 34.679L200.093 33.401C198.48 35.3421 197.177 39.0054 196.084 44.1522L198.04 44.5678ZM201.636 34.6732C202.036 34.1843 202.261 34.16 202.302 34.16V32.16C201.384 32.16 200.648 32.7223 200.088 33.4068L201.636 34.6732ZM202.302 34.16C202.555 34.16 203.012 34.3262 203.614 35.29L205.31 34.23C204.579 33.0605 203.596 32.16 202.302 32.16V34.16ZM203.63 35.3147C204.172 36.1271 204.342 36.6882 204.342 37.04H206.342C206.342 36.1118 205.926 35.1529 205.294 34.2053L203.63 35.3147ZM204.342 37.04C204.342 37.5812 204.264 38.1097 204.106 38.6288L206.019 39.2112C206.234 38.5036 206.342 37.7788 206.342 37.04H204.342ZM204.106 38.6288C203.938 39.1795 203.724 39.6885 203.466 40.1581L205.218 41.1219C205.547 40.5248 205.813 39.8872 206.019 39.2112L204.106 38.6288ZM203.457 40.1743C203.21 40.6445 202.923 41.1182 202.597 41.5953L204.247 42.7247C204.614 42.1885 204.941 41.6489 205.227 41.1057L203.457 40.1743ZM202.612 41.5745C202.26 42.0616 201.908 42.5619 201.557 43.0753L203.207 44.2047C203.55 43.7048 203.891 43.2184 204.233 42.7455L202.612 41.5745ZM201.416 43.3807C200.627 46.3207 200.045 49.6005 199.668 53.2161L201.657 53.4239C202.026 49.8928 202.591 46.7193 203.348 43.8993L201.416 43.3807ZM199.668 53.2153C199.559 54.244 199.502 55.0965 199.502 55.76H201.502C201.502 55.1969 201.552 54.4227 201.657 53.4247L199.668 53.2153ZM199.502 55.76C199.502 56.7092 199.578 57.5299 199.784 58.1462C199.98 58.7369 200.451 59.52 201.422 59.52V57.52C201.551 57.52 201.667 57.5805 201.727 57.6404C201.762 57.6757 201.731 57.6628 201.681 57.5138C201.58 57.2101 201.502 56.6508 201.502 55.76H199.502ZM201.422 59.52C201.875 59.52 202.305 59.3141 202.632 59.1234C202.993 58.912 203.398 58.6148 203.839 58.2512C204.722 57.5218 205.84 56.4499 207.183 55.0531L205.741 53.6669C204.418 55.0434 203.362 56.0515 202.566 56.7088C202.166 57.0385 201.854 57.2613 201.623 57.3966C201.356 57.5525 201.316 57.52 201.422 57.52V59.52ZM207.205 55.029C207.427 54.7828 207.587 54.633 207.692 54.5526C207.744 54.5129 207.761 54.5064 207.747 54.5129C207.739 54.5167 207.649 54.56 207.502 54.56V52.56C207.039 52.56 206.669 52.8166 206.472 52.9674C206.23 53.1537 205.977 53.4039 205.719 53.691L207.205 55.029ZM187.622 55.96C187.622 57.0808 187.824 58.1031 188.388 58.865C188.994 59.6832 189.893 60.04 190.902 60.04V58.04C190.391 58.04 190.15 57.8835 189.996 57.675C189.8 57.4103 189.622 56.8925 189.622 55.96H187.622ZM190.902 60.04C192.08 60.04 193.194 59.586 194.23 58.7944L193.015 57.2056C192.237 57.8006 191.538 58.04 190.902 58.04V60.04ZM194.219 58.8027C195.384 57.9367 196.195 56.5563 196.737 54.8174L194.827 54.2226C194.356 55.7371 193.727 56.6767 193.026 57.1973L194.219 58.8027ZM196.782 54.5422C196.834 52.2024 197.107 49.6137 197.607 46.7733L195.637 46.4267C195.124 49.3463 194.837 52.0376 194.782 54.4978L196.782 54.5422ZM196.426 45.6194C194.082 46.0883 192.036 47.2342 190.304 49.0246L191.741 50.4154C193.208 48.8991 194.896 47.9651 196.818 47.5806L196.426 45.6194ZM190.304 49.0246C188.506 50.8819 187.622 53.2192 187.622 55.96H189.622C189.622 53.6874 190.338 51.8647 191.741 50.4154L190.304 49.0246Z" fill="#002255"/>
<g clip-path="url(#clip0_0_1)">
<path d="M37.68 13.4C23.28 15.68 11.88 26.04 8.12003 40.2C6.84003 45.04 6.84003 52.96 8.12003 57.8C11.56 70.76 21.24 80.44 34.2 83.88C39.04 85.16 46.96 85.16 51.8 83.88C64.76 80.44 74.44 70.76 77.88 57.8C79.16 52.96 79.16 45.04 77.88 40.2C74.48 27.32 64.68 17.48 52 14.2C48.32 13.24 41.2 12.84 37.68 13.4ZM63.76 35.04C65.2 35.56 65.8 36.44 65.8 38.12C65.8 40.48 63.4 42.2 59.28 42.8C57.56 43.08 57.4 43.2 57 44.56C56.76 45.36 56.48 47.2 56.32 48.68C56.12 50.8 56.24 51.56 56.76 52.4C57.52 53.56 58.28 53.68 59.16 52.76C60.04 51.92 59.96 50.52 59 49.28C58.16 48.24 58.24 47.36 59.32 46.08C60.68 44.48 61.88 45.48 62.76 48.92C63 49.92 63.52 50.92 63.92 51.16C64.52 51.52 64.84 51.4 65.76 50.28C66.76 49.12 66.96 49.04 67.4 49.6C67.8 50.08 67.8 50.44 67.4 51.44C66.68 53.16 65.32 53.96 63.6 53.64C62.52 53.44 62.12 53.52 61.96 54C61.24 55.8 56.6 56.4 54.32 55C53.64 54.6 52.84 53.88 52.6 53.4C52.24 52.76 52 52.68 51.4 53C51 53.2 49.96 53.4 49.08 53.4C48.08 53.4 47.28 53.64 46.96 54.08C44.88 56.56 39.08 56.28 37.12 53.6C36.32 52.52 36.32 52.52 35.24 53.2C34.64 53.6 33.6 54.2 32.92 54.56C32.04 55 31.48 55.76 30.96 57.16C29.48 61.16 26.92 63.4 23.88 63.4C20.2 63.4 17.36 60.56 18.8 58.32C19.4 57.44 21.8 56.12 25.88 54.44C27.12 53.96 27.4 53.64 27.4 52.72C27.4 51.28 29.12 43.92 30.12 40.88L30.92 38.56L29.84 38.12C29.08 37.84 27.88 37.92 25.44 38.4C20.6 39.32 19.92 38.16 24.12 36.16C25.56 35.48 26.76 35.28 29.2 35.24C32.48 35.24 33.88 35.64 34.56 36.92C34.92 37.6 34.12 43.44 32.84 49.4C32.52 50.84 32.32 52.04 32.36 52.04C32.52 52.24 35.88 50.4 36 50.04C36.04 49.8 36.32 48.84 36.56 47.88C37.12 45.84 39.12 43.48 40.88 42.76C42.6 42 45.56 42.04 47.04 42.8C48.52 43.56 48.2 44.2 46.36 44.2C43 44.2 40.6 46.4 40.6 49.48C40.6 51.44 40.84 51.88 42.08 52.56C42.84 52.96 45 52.8 45 52.36C45 52.28 44.64 51.64 44.2 50.92C42.72 48.48 43.56 45.8 46.04 45C47.32 44.56 47.6 44.6 48.56 45.32C49.48 46 49.6 46.36 49.6 48.36C49.6 49.68 49.76 50.6 50 50.6C50.92 50.6 52.2 49.32 52.2 48.36C52.2 47.84 52.56 46.28 53 44.96L53.84 42.52L52.8 41.76C51.36 40.6 51.56 40.16 53.36 40.44C54.8 40.68 55 40.6 55.52 39.56C56.32 38.08 58.92 35.56 60.2 35.04C61.52 34.52 62.24 34.52 63.76 35.04Z" fill="#002255"/>
<path d="M60.16 38.96C58.2 40.88 58.12 41.52 59.92 40.92C61.68 40.32 62.6 39.44 62.6 38.32C62.6 37 61.92 37.16 60.16 38.96Z" fill="#002255"/>
<path d="M46.84 47.6C46.6 48.32 46.92 49.4 47.44 49.4C47.92 49.4 47.92 47.52 47.44 47.24C47.24 47.12 47 47.28 46.84 47.6Z" fill="#002255"/>
<path d="M23.88 57.84C21.6 58.72 21 59.44 21.84 60.44C23.04 61.88 25.64 60.44 26.4 57.88C26.72 56.8 26.6 56.8 23.88 57.84Z" fill="#002255"/>
</g>
<defs>
<clipPath id="clip0_0_1">
<rect width="72" height="72" fill="white" transform="translate(7 13)"/>
</clipPath>
</defs>
</svg>
